<svg width="64" height="63" viewBox="0 0 64 63" fill="none" xmlns="http://www.w3.org/2000/svg">
<path d="M55.8711 34.3301H8.12891C7.90047 34.3301 7.68139 34.4208 7.51986 34.5824C7.35832 34.7439 7.26758 34.963 7.26758 35.1914V56.8477C7.26758 57.0761 7.35832 57.2952 7.51986 57.4567C7.68139 57.6182 7.90047 57.709 8.12891 57.709H55.8711C56.0995 57.709 56.3186 57.6182 56.4801 57.4567C56.6417 57.2952 56.7324 57.0761 56.7324 56.8477V35.1914C56.7324 34.963 56.6417 34.7439 56.4801 34.5824C56.3186 34.4208 56.0995 34.3301 55.8711 34.3301ZM8.99023 36.0527H23.1815V55.9863H8.99023V36.0527ZM24.9041 36.0527H39.0959V55.9863H24.9041V36.0527ZM55.0098 55.9863H40.8185V36.0527H55.0098V55.9863Z" fill="url(#paint0_linear_557_1602)"/>
<path d="M19.7739 41.5692V38.6367C19.7739 38.4083 19.6831 38.1892 19.5216 38.0277C19.3601 37.8661 19.141 37.7754 18.9125 37.7754H13.2573C13.0289 37.7754 12.8098 37.8661 12.6483 38.0277C12.4867 38.1892 12.396 38.4083 12.396 38.6367V41.5706C11.7412 42.1125 11.214 42.7921 10.8522 43.5612C10.4903 44.3302 10.3027 45.1696 10.3027 46.0195C10.3027 46.8694 10.4903 47.7089 10.8522 48.4779C11.214 49.2469 11.7412 49.9266 12.396 50.4684V53.4023C12.396 53.6308 12.4867 53.8499 12.6483 54.0114C12.8098 54.1729 13.0289 54.2637 13.2573 54.2637H18.9125C19.141 54.2637 19.3601 54.1729 19.5216 54.0114C19.6831 53.8499 19.7739 53.6308 19.7739 53.4023V50.4699C20.4293 49.9281 20.9569 49.2483 21.3192 48.479C21.6814 47.7097 21.8692 46.8699 21.8692 46.0195C21.8692 45.1692 21.6814 44.3294 21.3192 43.5601C20.9569 42.7907 20.4293 42.1109 19.7739 41.5692ZM14.1186 39.498H18.0512V40.5877C16.7823 40.1189 15.3876 40.1189 14.1186 40.5877V39.498ZM18.0512 52.541H14.1186V51.4508C15.3876 51.9197 16.7823 51.9197 18.0512 51.4508V52.541ZM16.0859 50.0801C15.2828 50.0801 14.4977 49.8419 13.83 49.3958C13.1622 48.9496 12.6418 48.3154 12.3345 47.5734C12.0271 46.8315 11.9467 46.015 12.1034 45.2274C12.2601 44.4397 12.6468 43.7162 13.2147 43.1483C13.7825 42.5804 14.5061 42.1937 15.2937 42.037C16.0814 41.8803 16.8978 41.9607 17.6398 42.2681C18.3818 42.5754 19.016 43.0959 19.4621 43.7636C19.9083 44.4314 20.1465 45.2164 20.1465 46.0195C20.1453 47.0961 19.7171 48.1282 18.9559 48.8895C18.1946 49.6507 17.1625 50.0789 16.0859 50.0801Z" fill="url(#paint1_linear_557_1602)"/>
<path d="M17.7264 45.1582H16.9473V43.8662C16.9473 43.6378 16.8565 43.4187 16.695 43.2572C16.5335 43.0956 16.3144 43.0049 16.0859 43.0049C15.8575 43.0049 15.6384 43.0956 15.4769 43.2572C15.3154 43.4187 15.2246 43.6378 15.2246 43.8662V46.0195C15.2246 46.248 15.3154 46.4671 15.4769 46.6286C15.6384 46.7901 15.8575 46.8809 16.0859 46.8809H17.7264C17.9548 46.8809 18.1739 46.7901 18.3355 46.6286C18.497 46.4671 18.5877 46.248 18.5877 46.0195C18.5877 45.7911 18.497 45.572 18.3355 45.4105C18.1739 45.249 17.9548 45.1582 17.7264 45.1582ZM35.6863 41.5677V38.6367C35.6863 38.4083 35.5956 38.1892 35.434 38.0277C35.2725 37.8661 35.0534 37.7754 34.825 37.7754H29.1747C28.9462 37.7754 28.7272 37.8661 28.5656 38.0277C28.4041 38.1892 28.3134 38.4083 28.3134 38.6367V41.5677C27.6575 42.1095 27.1295 42.7895 26.767 43.5591C26.4045 44.3287 26.2165 45.1688 26.2165 46.0195C26.2165 46.8702 26.4045 47.7104 26.767 48.48C27.1295 49.2496 27.6575 49.9296 28.3134 50.4714V53.4023C28.3134 53.6308 28.4041 53.8499 28.5656 54.0114C28.7272 54.1729 28.9462 54.2637 29.1747 54.2637H34.825C35.0534 54.2637 35.2725 54.1729 35.434 54.0114C35.5956 53.8499 35.6863 53.6308 35.6863 53.4023V50.4714C36.3422 49.9296 36.8702 49.2496 37.2327 48.48C37.5952 47.7104 37.7831 46.8702 37.7831 46.0195C37.7831 45.1688 37.5952 44.3287 37.2327 43.5591C36.8702 42.7895 36.3422 42.1095 35.6863 41.5677ZM30.036 39.5005H33.9637V40.5897C32.6962 40.1218 31.3034 40.1218 30.036 40.5897V39.5005ZM33.9637 52.5435H30.036V51.4543C31.3034 51.9222 32.6962 51.9222 33.9637 51.4543V52.5435ZM31.9998 50.0825C31.1967 50.0825 30.4117 49.8444 29.7439 49.3982C29.0762 48.952 28.5557 48.3179 28.2484 47.5759C27.941 46.8339 27.8606 46.0175 28.0173 45.2298C28.174 44.4422 28.5607 43.7186 29.1286 43.1508C29.6965 42.5829 30.42 42.1961 31.2077 42.0395C31.9953 41.8828 32.8118 41.9632 33.5537 42.2705C34.2957 42.5779 34.9299 43.0983 35.3761 43.7661C35.8222 44.4338 36.0604 45.2189 36.0604 46.022C36.0586 47.0981 35.6301 48.1296 34.8689 48.8903C34.1077 49.6511 33.076 50.0789 31.9998 50.0801V50.0825Z" fill="url(#paint2_linear_557_1602)"/>
<path d="M33.4416 45.1582H32.5124L31.7288 43.7161C31.6197 43.5153 31.4354 43.3661 31.2163 43.3013C30.9972 43.2364 30.7614 43.2613 30.5606 43.3703C30.3598 43.4794 30.2106 43.6637 30.1458 43.8828C30.0809 44.1019 30.1058 44.3378 30.2148 44.5385L31.243 46.4305C31.317 46.5667 31.4264 46.6805 31.5596 46.7598C31.6928 46.839 31.845 46.8809 32 46.8809H33.4416C33.6701 46.8809 33.8891 46.7901 34.0507 46.6286C34.2122 46.4671 34.3029 46.248 34.3029 46.0195C34.3029 45.7911 34.2122 45.572 34.0507 45.4105C33.8891 45.249 33.6701 45.1582 33.4416 45.1582ZM44.2259 50.4699V53.4023C44.2259 53.6308 44.3167 53.8499 44.4782 54.0114C44.6397 54.1729 44.8588 54.2637 45.0873 54.2637H50.7425C50.9709 54.2637 51.19 54.1729 51.3516 54.0114C51.5131 53.8499 51.6038 53.6308 51.6038 53.4023V50.4684C52.2586 49.9266 52.7858 49.2469 53.1476 48.4779C53.5095 47.7089 53.6971 46.8694 53.6971 46.0195C53.6971 45.1696 53.5095 44.3302 53.1476 43.5612C52.7858 42.7921 52.2586 42.1125 51.6038 41.5706V38.6367C51.6038 38.4083 51.5131 38.1892 51.3516 38.0277C51.19 37.8661 50.9709 37.7754 50.7425 37.7754H45.0873C44.8588 37.7754 44.6397 37.8661 44.4782 38.0277C44.3167 38.1892 44.2259 38.4083 44.2259 38.6367V41.5692C43.5705 42.1109 43.0429 42.7907 42.6807 43.5601C42.3184 44.3294 42.1306 45.1692 42.1306 46.0195C42.1306 46.8699 42.3184 47.7097 42.6807 48.479C43.0429 49.2483 43.5705 49.9281 44.2259 50.4699ZM49.8812 52.541H45.9486V51.4513C47.2175 51.9202 48.6122 51.9202 49.8812 51.4513V52.541ZM45.9486 39.498H49.8812V40.5882C48.6122 40.1194 47.2175 40.1194 45.9486 40.5882V39.498ZM47.9139 41.959C48.717 41.959 49.5021 42.1971 50.1698 42.6433C50.8376 43.0895 51.358 43.7237 51.6654 44.4656C51.9727 45.2076 52.0531 46.024 51.8964 46.8117C51.7397 47.5994 51.353 48.3229 50.7851 48.8908C50.2173 49.4587 49.4937 49.8454 48.7061 50.0021C47.9184 50.1587 47.102 50.0783 46.36 49.771C45.618 49.4637 44.9839 48.9432 44.5377 48.2755C44.0915 47.6077 43.8534 46.8226 43.8534 46.0195C43.8545 44.943 44.2827 43.9108 45.044 43.1496C45.8052 42.3883 46.8373 41.9602 47.9139 41.959Z" fill="url(#paint3_linear_557_1602)"/>
<path d="M47.0526 46.3847V48.1729C47.0526 48.4013 47.1433 48.6204 47.3048 48.7819C47.4664 48.9434 47.6854 49.0342 47.9139 49.0342C48.1423 49.0342 48.3614 48.9434 48.5229 48.7819C48.6845 48.6204 48.7752 48.4013 48.7752 48.1729V46.0195C48.7752 45.904 48.752 45.7897 48.707 45.6833C48.6619 45.5769 48.5959 45.4807 48.5129 45.4004L47.2721 44.2009C47.1058 44.0542 46.8894 43.9772 46.6678 43.9861C46.4463 43.9949 46.2366 44.0888 46.0826 44.2483C45.9286 44.4078 45.842 44.6206 45.8408 44.8423C45.8397 45.0641 45.9241 45.2777 46.0765 45.4387L47.0526 46.3847ZM55.8711 20.0566C56.0995 20.0566 56.3186 19.9659 56.4801 19.8044C56.6417 19.6428 56.7324 19.4238 56.7324 19.1953V16.2422C56.7324 16.0137 56.6417 15.7947 56.4801 15.6331C56.3186 15.4716 56.0995 15.3809 55.8711 15.3809C55.6426 15.3809 55.4236 15.4716 55.262 15.6331C55.1005 15.7947 55.0097 16.0137 55.0097 16.2422V19.1953C55.0097 19.4238 55.1005 19.6428 55.262 19.8044C55.4236 19.9659 55.6426 20.0566 55.8711 20.0566Z" fill="url(#paint4_linear_557_1602)"/>
<path d="M59.6855 27.1166V9.10547C59.6844 8.09417 59.2821 7.12463 58.567 6.40954C57.8519 5.69444 56.8824 5.29219 55.8711 5.29102H38.6657C38.4706 4.4522 37.9977 3.70398 37.3237 3.16787C36.6497 2.63176 35.8143 2.33927 34.9531 2.33789H29.0469C28.1857 2.33927 27.3503 2.63176 26.6763 3.16787C26.0023 3.70398 25.5294 4.4522 25.3343 5.29102H8.12891C7.11761 5.29219 6.14807 5.69444 5.43298 6.40954C4.71788 7.12463 4.31563 8.09417 4.31445 9.10547V27.1166C3.87962 27.2888 3.50646 27.5876 3.24323 27.9742C2.98 28.3608 2.8388 28.8174 2.83789 29.2852V30.7617C2.8388 31.2294 2.98 31.6861 3.24323 32.0727C3.50646 32.4593 3.87962 32.758 4.31445 32.9303V56.8477C4.31563 57.859 4.71788 58.8285 5.43298 59.5436C6.14807 60.2587 7.11761 60.6609 8.12891 60.6621H55.8711C56.8824 60.6609 57.8519 60.2587 58.567 59.5436C59.2821 58.8285 59.6844 57.859 59.6855 56.8477V32.9303C60.1204 32.758 60.4935 32.4593 60.7568 32.0727C61.02 31.6861 61.1612 31.2294 61.1621 30.7617V29.2852C61.1612 28.8174 61.02 28.3608 60.7568 27.9742C60.4935 27.5876 60.1204 27.2888 59.6855 27.1166ZM59.4395 30.7617C59.4392 30.9248 59.3743 31.0811 59.259 31.1965C59.1436 31.3118 58.9873 31.3767 58.8242 31.377H5.17578C5.01269 31.3767 4.85636 31.3118 4.74103 31.1965C4.62571 31.0811 4.56081 30.9248 4.56055 30.7617V29.2852C4.56081 29.1221 4.62571 28.9657 4.74103 28.8504C4.85636 28.7351 5.01269 28.6702 5.17578 28.6699H58.8242C58.9873 28.6702 59.1436 28.7351 59.259 28.8504C59.3743 28.9657 59.4392 29.1221 59.4395 29.2852V30.7617ZM29.0469 4.06055H34.9531C35.3547 4.06155 35.7475 4.1781 36.0847 4.39629C36.4218 4.61448 36.689 4.92508 36.8544 5.29102H27.1456C27.311 4.92508 27.5782 4.61448 27.9153 4.39629C28.2525 4.1781 28.6453 4.06155 29.0469 4.06055ZM8.12891 7.01367H55.8711C56.4257 7.01432 56.9574 7.23492 57.3495 7.62706C57.7416 8.01921 57.9622 8.55089 57.9629 9.10547V26.9473H6.03711V9.10547C6.03776 8.55089 6.25835 8.01921 6.6505 7.62706C7.04265 7.23492 7.57433 7.01432 8.12891 7.01367ZM55.8711 58.9395H8.12891C7.57433 58.9388 7.04265 58.7182 6.6505 58.3261C6.25835 57.9339 6.03776 57.4022 6.03711 56.8477V33.0996H57.9629V56.8477C57.9622 57.4022 57.7416 57.9339 57.3495 58.3261C56.9574 58.7182 56.4257 58.9388 55.8711 58.9395Z" fill="url(#paint5_linear_557_1602)"/>
<defs>
<linearGradient id="paint0_linear_557_1602" x1="7.26758" y1="57.709" x2="25.3318" y2="19.489" gradientUnits="userSpaceOnUse">
<stop stop-color="#D64E38"/>
<stop offset="1" stop-color="#E16E5C"/>
</linearGradient>
<linearGradient id="paint1_linear_557_1602" x1="10.3027" y1="54.2637" x2="25.8064" y2="43.388" gradientUnits="userSpaceOnUse">
<stop stop-color="#D64E38"/>
<stop offset="1" stop-color="#E16E5C"/>
</linearGradient>
<linearGradient id="paint2_linear_557_1602" x1="15.2246" y1="54.2637" x2="30.9347" y2="32.7698" gradientUnits="userSpaceOnUse">
<stop stop-color="#D64E38"/>
<stop offset="1" stop-color="#E16E5C"/>
</linearGradient>
<linearGradient id="paint3_linear_557_1602" x1="30.1104" y1="54.2637" x2="45.5955" y2="32.112" gradientUnits="userSpaceOnUse">
<stop stop-color="#D64E38"/>
<stop offset="1" stop-color="#E16E5C"/>
</linearGradient>
<linearGradient id="paint4_linear_557_1602" x1="45.8408" y1="49.0342" x2="65.5587" y2="42.6527" gradientUnits="userSpaceOnUse">
<stop stop-color="#D64E38"/>
<stop offset="1" stop-color="#E16E5C"/>
</linearGradient>
<linearGradient id="paint5_linear_557_1602" x1="2.83789" y1="60.6621" x2="61.1621" y2="2.33789" gradientUnits="userSpaceOnUse">
<stop stop-color="#D64E38"/>
<stop offset="1" stop-color="#E16E5C"/>
</linearGradient>
</defs>
</svg>
