<svg width="64" height="64" viewBox="0 0 64 64" fill="none" xmlns="http://www.w3.org/2000/svg">
<g clip-path="url(#clip0_557_1650)">
<path d="M24.8871 0.25H2.53226C1.41147 0.25 0.5 1.16147 0.5 2.28226V6.34677C0.5 7.46756 1.41147 8.37903 2.53226 8.37903H4.56452V58.1694C4.56452 60.9708 6.84369 63.25 9.64516 63.25H17.7742C20.5757 63.25 22.8548 60.9708 22.8548 58.1694V8.37903H24.8871C26.0079 8.37903 26.9194 7.46756 26.9194 6.34677V2.28226C26.9194 1.16147 26.0079 0.25 24.8871 0.25ZM24.8871 6.34677H18.7903V8.37903H20.8226V58.1694C20.8226 59.85 19.4549 61.2177 17.7742 61.2177H9.64516C7.96448 61.2177 6.59677 59.85 6.59677 58.1694V8.37903H16.7581V6.34677H2.53226V2.28226H24.8871V6.34677Z" fill="url(#paint0_linear_557_1650)"/>
<path d="M10.6611 36.8306H16.7579V38.8629H10.6611V36.8306ZM10.6611 42.9274H16.7579V44.9597H10.6611V42.9274ZM10.6611 49.0242H16.7579V51.0565H10.6611V49.0242ZM10.6611 55.121H16.7579V57.1532H10.6611V55.121ZM10.6611 30.7339H16.7579V32.7661H10.6611V30.7339ZM61.4676 8.37903C62.5884 8.37903 63.4998 7.46756 63.4998 6.34677V4.31452C63.4998 3.19373 62.5884 2.28226 61.4676 2.28226H59.2484C58.8277 1.10253 57.7099 0.25 56.3869 0.25H44.1934C42.8704 0.25 41.7526 1.10253 41.332 2.28226H39.1127C37.992 2.28226 37.0805 3.19373 37.0805 4.31452V6.34677C37.0805 7.46756 37.992 8.37903 39.1127 8.37903H41.145V26.6694C40.0242 26.6694 39.1127 27.5808 39.1127 28.7016V32.7661C39.1127 33.8869 40.0242 34.7984 41.145 34.7984V38.9655C38.8292 39.438 37.0805 41.4896 37.0805 43.9435V58.1694C37.0805 60.9708 39.3597 63.25 42.1611 63.25H58.4192C61.2207 63.25 63.4998 60.9708 63.4998 58.1694V43.9435C63.4998 41.4906 61.7511 39.438 59.4353 38.9655V34.7984C60.5561 34.7984 61.4676 33.8869 61.4676 32.7661V28.7016C61.4676 27.5808 60.5561 26.6694 59.4353 26.6694V8.37903H61.4676ZM59.4353 4.31452H61.4676V6.34677H59.4353V4.31452ZM43.1773 3.29839C43.1773 2.7385 43.6335 2.28226 44.1934 2.28226H56.3869C56.9468 2.28226 57.4031 2.7385 57.4031 3.29839V26.6694H43.1773V3.29839ZM39.1127 6.34677V4.31452H41.145V6.34677H39.1127ZM61.4676 43.9435V58.1694C61.4676 59.85 60.0999 61.2177 58.4192 61.2177H42.1611C40.4805 61.2177 39.1127 59.85 39.1127 58.1694V43.9435C39.1127 42.6205 39.9653 41.5028 41.145 41.0821V57.1532C41.145 58.274 42.0565 59.1855 43.1773 59.1855H57.4031C58.5239 59.1855 59.4353 58.274 59.4353 57.1532V41.0821C60.6151 41.5028 61.4676 42.6205 61.4676 43.9435ZM43.1773 57.1532V49.0242H47.2418V57.1532H43.1773ZM49.274 57.1532V48.0081C49.274 47.4482 49.7303 46.9919 50.2902 46.9919C50.8501 46.9919 51.3063 47.4482 51.3063 48.0081V57.1532H49.274ZM53.3386 57.1532V49.0242H57.4031V57.1532H53.3386ZM59.4353 32.7661H55.3708V34.7984H57.4031V46.9919H53.1516C52.7309 45.8122 51.6132 44.9597 50.2902 44.9597C48.9672 44.9597 47.8494 45.8122 47.4287 46.9919H43.1773V34.7984H53.3386V32.7661H41.145V28.7016H59.4353V32.7661Z" fill="url(#paint1_linear_557_1650)"/>
</g>
<defs>
<linearGradient id="paint0_linear_557_1650" x1="0.5" y1="63.25" x2="45.4363" y2="44.4058" gradientUnits="userSpaceOnUse">
<stop stop-color="#D64E38"/>
<stop offset="1" stop-color="#E16E5C"/>
</linearGradient>
<linearGradient id="paint1_linear_557_1650" x1="10.6611" y1="63.25" x2="72.699" y2="11.2182" gradientUnits="userSpaceOnUse">
<stop stop-color="#D64E38"/>
<stop offset="1" stop-color="#E16E5C"/>
</linearGradient>
<clipPath id="clip0_557_1650">
<rect width="63" height="63" fill="white" transform="translate(0.5 0.25)"/>
</clipPath>
</defs>
</svg>
