<svg width="63" height="63" viewBox="0 0 63 63" fill="none" xmlns="http://www.w3.org/2000/svg">
<path fill-rule="evenodd" clip-rule="evenodd" d="M31 61C23.0312 61 15.4141 57.8359 9.78906 52.2109C4.16406 46.5859 1 38.9688 1 31C1 23.0312 4.16406 15.4141 9.78906 9.78906C15.4141 4.16406 23.0312 1 31 1C38.9688 1 46.5859 4.16406 52.2109 9.78906C57.8359 15.4141 61 23.0312 61 31C61 38.9688 57.8359 46.5859 52.2109 52.2109C46.5859 57.8359 38.9688 61 31 61ZM31 2.40625C15.2969 2.40625 2.40625 15.2969 2.40625 31C2.40625 46.7031 15.2969 59.5938 31 59.5938C46.7031 59.5938 59.5938 46.7031 59.5938 31C59.5938 15.2969 46.7031 2.40625 31 2.40625Z" fill="url(#paint0_linear_557_1623)"/>
<path fill-rule="evenodd" clip-rule="evenodd" d="M31 57.1328C23.9688 57.1328 17.4062 54.4375 12.4844 49.5156C7.5625 44.5938 4.86719 38.0312 4.86719 31C4.86719 23.9688 7.5625 17.4062 12.4844 12.4844C17.4062 7.5625 23.9688 4.86719 31 4.86719C38.0312 4.86719 44.5938 7.5625 49.5156 12.4844C54.4375 17.4062 57.1328 23.9688 57.1328 31C57.1328 38.0312 54.4375 44.5938 49.5156 49.5156C44.5938 54.4375 38.0312 57.1328 31 57.1328ZM31 6.27344C17.4062 6.27344 6.27344 17.4062 6.27344 31C6.27344 44.5938 17.4062 55.7266 31 55.7266C44.5938 55.7266 55.7266 44.5938 55.7266 31C55.7266 17.4062 44.5938 6.27344 31 6.27344Z" fill="url(#paint1_linear_557_1623)"/>
<path fill-rule="evenodd" clip-rule="evenodd" d="M31 9.4375C30.6484 9.4375 30.2969 9.20312 30.2969 8.73438V5.57031C30.2969 5.21875 30.6484 4.86719 31 4.86719C31.3516 4.86719 31.7031 5.21875 31.7031 5.57031V8.73438C31.7031 9.20312 31.3516 9.4375 31 9.4375ZM42.1328 12.4844C42.0156 12.4844 41.8984 12.3672 41.7812 12.3672C41.4297 12.1328 41.3125 11.7812 41.5469 11.4297L43.0703 8.61719C43.3047 8.26562 43.7734 8.14844 44.0078 8.38281C44.3594 8.61719 44.4766 8.96875 44.3594 9.32031L42.7188 12.1328C42.6016 12.3672 42.3672 12.4844 42.1328 12.4844ZM50.2188 20.5703C49.9844 20.5703 49.75 20.4531 49.6328 20.2188C49.3984 19.8672 49.5156 19.5156 49.8672 19.2812L52.6797 17.6406C53.0312 17.5234 53.3828 17.6406 53.6172 17.9922C53.8516 18.2266 53.7344 18.6953 53.3828 18.9297L50.5703 20.4531C50.4531 20.5703 50.3359 20.5703 50.2188 20.5703ZM56.4297 31.7031H53.2656C52.7969 31.7031 52.5625 31.3516 52.5625 31C52.5625 30.6484 52.7969 30.2969 53.2656 30.2969H56.4297C56.7812 30.2969 57.1328 30.6484 57.1328 31C57.1328 31.3516 56.7812 31.7031 56.4297 31.7031ZM53.0312 44.3594H52.6797L49.8672 42.7188C49.5156 42.4844 49.3984 42.1328 49.6328 41.7812C49.8672 41.4297 50.2188 41.3125 50.5703 41.5469L53.3828 43.0703C53.7344 43.3047 53.8516 43.7734 53.6172 44.0078C53.5 44.2422 53.2656 44.3594 53.0312 44.3594ZM43.6562 53.7344C43.4219 53.7344 43.1875 53.6172 43.0703 53.3828L41.5469 50.5703C41.3125 50.2188 41.4297 49.8672 41.7812 49.6328C42.1328 49.3984 42.4844 49.5156 42.7188 49.8672L44.3594 52.6797C44.4766 53.0312 44.3594 53.3828 44.0078 53.6172C44.0078 53.7344 43.8906 53.7344 43.6562 53.7344ZM31 57.1328C30.6484 57.1328 30.2969 56.7812 30.2969 56.4297V53.2656C30.2969 52.7969 30.6484 52.5625 31 52.5625C31.3516 52.5625 31.7031 52.7969 31.7031 53.2656V56.4297C31.7031 56.7812 31.3516 57.1328 31 57.1328ZM18.3438 53.7344C18.1094 53.7344 17.9922 53.7344 17.9922 53.6172C17.6406 53.3828 17.5234 53.0312 17.6406 52.6797L19.2812 49.8672C19.5156 49.5156 19.8672 49.3984 20.2188 49.6328C20.5703 49.8672 20.6875 50.2188 20.4531 50.5703L18.9297 53.3828C18.8125 53.6172 18.5781 53.7344 18.3438 53.7344ZM8.96875 44.3594C8.73438 44.3594 8.5 44.2422 8.38281 44.0078C8.14844 43.7734 8.26562 43.3047 8.61719 43.0703L11.4297 41.5469C11.7812 41.3125 12.1328 41.4297 12.3672 41.7812C12.6016 42.1328 12.4844 42.4844 12.1328 42.7188L9.32031 44.3594H8.96875ZM8.73438 31.7031H5.57031C5.21875 31.7031 4.86719 31.3516 4.86719 31C4.86719 30.6484 5.21875 30.2969 5.57031 30.2969H8.73438C9.20312 30.2969 9.4375 30.6484 9.4375 31C9.4375 31.3516 9.20312 31.7031 8.73438 31.7031ZM11.7812 20.5703C11.6641 20.5703 11.5469 20.5703 11.4297 20.4531L8.61719 18.9297C8.26562 18.6953 8.14844 18.2266 8.38281 17.9922C8.61719 17.6406 8.96875 17.5234 9.32031 17.6406L12.1328 19.2812C12.4844 19.5156 12.6016 19.8672 12.3672 20.2188C12.25 20.4531 12.0156 20.5703 11.7812 20.5703ZM19.8672 12.4844C19.6328 12.4844 19.3984 12.3672 19.2812 12.1328L17.6406 9.32031C17.5234 8.96875 17.6406 8.61719 17.9922 8.38281C18.2266 8.14844 18.6953 8.26562 18.9297 8.61719L20.4531 11.4297C20.6875 11.7812 20.5703 12.1328 20.2188 12.3672C20.1016 12.3672 19.9844 12.4844 19.8672 12.4844ZM37.0938 38.3828H36.7422C35.9219 37.9141 35.3359 37.0938 35.1016 36.1562C34.8672 35.3359 34.9844 34.3984 35.4531 33.5781C36.3906 31.8203 38.5 31.3516 40.1406 32.2891C40.4922 32.4062 40.6094 32.875 40.4922 33.2266C40.2578 33.5781 39.7891 33.6953 39.4375 33.4609C38.5 32.875 37.2109 33.2266 36.625 34.2812C36.0391 35.2188 36.3906 36.5078 37.4453 37.0938C37.6797 37.3281 37.7969 37.6797 37.6797 38.0312C37.5625 38.2656 37.3281 38.3828 37.0938 38.3828ZM31 34.5156C30.4141 34.5156 29.8281 34.2812 29.2422 34.0469C28.4219 33.5781 27.8359 32.7578 27.6016 31.9375C27.3672 31 27.4844 30.0625 27.9531 29.2422C28.5391 28.1875 29.7109 27.4844 31 27.4844C31.5859 27.4844 32.1719 27.7188 32.7578 27.9531C34.3984 28.8906 34.9844 31.1172 34.0469 32.7578C33.4609 33.8125 32.2891 34.5156 31 34.5156ZM31 28.8906C30.2969 28.8906 29.5938 29.3594 29.2422 29.9453C28.8906 30.4141 28.8906 31 29.0078 31.5859C29.125 32.0547 29.4766 32.5234 29.9453 32.7578C30.2969 32.9922 30.6484 33.1094 31 33.1094C31.7031 33.1094 32.4062 32.6406 32.7578 32.0547C33.3438 31 32.9922 29.7109 32.0547 29.2422C31.7031 29.0078 31.3516 28.8906 31 28.8906Z" fill="url(#paint2_linear_557_1623)"/>
<path fill-rule="evenodd" clip-rule="evenodd" d="M36.0389 34.6328C35.9217 34.6328 35.8046 34.5156 35.6874 34.5156L33.1092 32.9922C32.7577 32.7578 32.6405 32.4062 32.7577 32.0547C32.9921 31.7031 33.4608 31.5859 33.8124 31.8203L36.3905 33.3438C36.7421 33.4609 36.8592 33.9297 36.6249 34.2812C36.5077 34.5156 36.2733 34.6328 36.0389 34.6328ZM28.5389 30.2969C28.4217 30.2969 28.3046 30.2969 28.1874 30.1797L21.1561 26.1953C20.8046 25.9609 20.6874 25.4922 20.9217 25.1406C21.1561 24.7891 21.5077 24.6719 21.8592 24.9062L28.8905 29.0078C29.2421 29.2422 29.3592 29.5938 29.2421 29.9453C29.0077 30.1797 28.7733 30.2969 28.5389 30.2969ZM30.9999 28.8906C30.6483 28.8906 30.2967 28.5391 30.2967 28.1875V24.2031C30.2967 23.7344 30.6483 23.5 30.9999 23.5C31.4686 23.5 31.703 23.7344 31.703 24.2031V28.1875C31.703 28.5391 31.4686 28.8906 30.9999 28.8906Z" fill="url(#paint3_linear_557_1623)"/>
<defs>
<linearGradient id="paint0_linear_557_1623" x1="1" y1="61" x2="61" y2="1" gradientUnits="userSpaceOnUse">
<stop stop-color="#D64E38"/>
<stop offset="1" stop-color="#E16E5C"/>
</linearGradient>
<linearGradient id="paint1_linear_557_1623" x1="4.86719" y1="57.1328" x2="57.1328" y2="4.86719" gradientUnits="userSpaceOnUse">
<stop stop-color="#D64E38"/>
<stop offset="1" stop-color="#E16E5C"/>
</linearGradient>
<linearGradient id="paint2_linear_557_1623" x1="4.86719" y1="57.1328" x2="57.1328" y2="4.86719" gradientUnits="userSpaceOnUse">
<stop stop-color="#D64E38"/>
<stop offset="1" stop-color="#E16E5C"/>
</linearGradient>
<linearGradient id="paint3_linear_557_1623" x1="20.7998" y1="34.6328" x2="31.2505" y2="19.6629" gradientUnits="userSpaceOnUse">
<stop stop-color="#D64E38"/>
<stop offset="1" stop-color="#E16E5C"/>
</linearGradient>
</defs>
</svg>
