<svg width="64" height="64" viewBox="0 0 64 64" fill="none" xmlns="http://www.w3.org/2000/svg">
<g clip-path="url(#clip0_557_1642)">
<path d="M32 51.3148C14.3359 51.3148 0.5 45.4222 0.5 37.8986V25.0651C0.5 24.4208 1.02209 23.8982 1.66689 23.8982C2.31169 23.8982 2.83311 24.4208 2.83311 25.0651C2.83311 30.4176 14.5537 36.1482 32 36.1482C49.4463 36.1482 61.1669 30.4176 61.1669 25.0651C61.1642 24.9102 61.1925 24.7564 61.2499 24.6125C61.3073 24.4687 61.3928 24.3377 61.5014 24.2272C61.61 24.1168 61.7395 24.029 61.8824 23.9691C62.0252 23.9093 62.1785 23.8784 62.3334 23.8784C62.4883 23.8784 62.6417 23.9093 62.7845 23.9691C62.9274 24.029 63.0569 24.1168 63.1655 24.2272C63.2741 24.3377 63.3596 24.4687 63.417 24.6125C63.4744 24.7564 63.5026 24.9102 63.5 25.0651V37.8986C63.5 45.422 49.6641 51.3148 32 51.3148ZM2.83311 30.2266V37.8982C2.83311 43.2509 14.5537 48.9813 32 48.9813C49.4463 48.9813 61.1669 43.2509 61.1669 37.8984V30.2268C56.508 35.1172 45.3475 38.4818 32 38.4818C18.6527 38.4818 7.49214 35.1172 2.83311 30.2266Z" fill="url(#paint0_linear_557_1642)"/>
<path d="M6.16033 32.6482C5.93816 32.6482 5.71428 32.5847 5.52082 32.4579C2.23633 30.3049 0.5 27.7481 0.5 25.0651C0.5 19.9274 6.75454 15.4815 17.2306 13.1709C19.3937 12.695 21.6307 13.2237 23.3717 14.6224C25.1482 16.0502 26.1669 18.1736 26.1669 20.4488C26.1669 24.1279 23.608 27.2 20.0839 27.8214C14.6092 28.7849 9.89275 30.4317 6.79915 32.4579C6.60926 32.5821 6.38724 32.6484 6.16033 32.6482ZM18.7942 15.3333C18.4409 15.3333 18.0851 15.3726 17.732 15.4495C8.68176 17.4454 2.83311 21.2199 2.83311 25.0651C2.83311 27.1533 4.53867 28.8922 6.18972 30.086C9.54958 28.0611 14.1905 26.4891 19.6781 25.523C22.086 25.0985 23.8336 22.993 23.8336 20.5156C23.8336 18.8836 23.1328 17.4227 21.9103 16.4407C21.0078 15.7165 19.913 15.3333 18.7942 15.3333ZM57.8398 32.6482C57.6175 32.6482 57.3945 32.5847 57.2009 32.4579C54.2969 30.5558 50.1005 29.0245 45.0657 28.0318C41.551 27.3389 39.0002 24.2686 39.0002 20.7313C39.0002 18.4293 40.0409 16.2972 41.8574 14.8799C43.686 13.4541 46.0237 12.9607 48.2755 13.5261C57.8091 15.9186 63.5002 20.2319 63.5002 25.0651C63.5002 27.7482 61.7638 30.3049 58.4787 32.4579C58.2888 32.5821 58.0668 32.6484 57.8398 32.6482ZM46.4423 15.6317C45.3108 15.6317 44.2093 16.0055 43.2933 16.7198C42.0476 17.6912 41.3334 19.1531 41.3334 20.7306C41.3334 23.1572 43.0925 25.2646 45.517 25.7427C50.4791 26.7213 54.7069 28.2167 57.8104 30.086C59.4613 28.8924 61.1669 27.1533 61.1669 25.0651C61.1669 21.4267 56.0087 17.8727 47.708 15.7886C47.2941 15.6846 46.869 15.6319 46.4423 15.6317Z" fill="url(#paint1_linear_557_1642)"/>
</g>
<defs>
<linearGradient id="paint0_linear_557_1642" x1="0.5" y1="51.3148" x2="20.5872" y2="5.18997" gradientUnits="userSpaceOnUse">
<stop stop-color="#D64E38"/>
<stop offset="1" stop-color="#E16E5C"/>
</linearGradient>
<linearGradient id="paint1_linear_557_1642" x1="0.5" y1="32.6482" x2="11.6692" y2="-3.16482" gradientUnits="userSpaceOnUse">
<stop stop-color="#D64E38"/>
<stop offset="1" stop-color="#E16E5C"/>
</linearGradient>
<clipPath id="clip0_557_1642">
<rect width="63" height="63" fill="white" transform="translate(0.5 0.25)"/>
</clipPath>
</defs>
</svg>
