<svg width="63" height="63" viewBox="0 0 63 63" fill="none" xmlns="http://www.w3.org/2000/svg">
<path d="M33.4571 58.9698C33.4041 58.4572 33.7738 57.9896 34.294 57.9366C34.8143 57.8843 35.2742 58.2533 35.3272 58.7738C35.3876 59.2945 35.0106 59.754 34.49 59.8144H34.3921C33.9169 59.8144 33.5098 59.4529 33.4571 58.9698ZM28.3596 59.7915C28.1113 59.7629 27.8843 59.6376 27.7277 59.4429C27.5711 59.2482 27.4974 58.9997 27.5227 58.751C27.583 58.2312 28.0504 57.854 28.5632 57.9145C29.0834 57.9749 29.4531 58.4417 29.4001 58.955C29.3474 59.4374 28.9327 59.7915 28.4652 59.7915H28.3596ZM39.301 57.9145C39.135 57.4167 39.3989 56.8813 39.8891 56.7149C40.3869 56.5492 40.9221 56.821 41.0878 57.3106C41.2539 57.8084 40.9826 58.3438 40.4921 58.5021C40.3942 58.5404 40.2889 58.5551 40.1906 58.5551C39.7984 58.5552 39.4292 58.3063 39.301 57.9145ZM22.3651 58.4572C21.8746 58.2915 21.6111 57.7561 21.7768 57.2657C21.9429 56.7679 22.4781 56.5043 22.9756 56.67C23.466 56.8438 23.7296 57.3791 23.5639 57.8688C23.5001 58.056 23.3792 58.2186 23.2183 58.3336C23.0574 58.4487 22.8645 58.5104 22.6666 58.5101C22.5638 58.5102 22.4618 58.4923 22.3651 58.4572ZM44.7752 55.6141C44.7105 55.5086 44.6674 55.3911 44.6487 55.2687C44.6299 55.1463 44.6358 55.0213 44.6661 54.9012C44.6963 54.7811 44.7502 54.6682 44.8246 54.5692C44.8991 54.4703 44.9925 54.3871 45.0995 54.3248C45.5443 54.0538 46.1176 54.2047 46.3889 54.6495C46.6529 55.0943 46.5097 55.6745 46.0646 55.9388C45.919 56.0272 45.7521 56.074 45.5819 56.0743C45.4189 56.0748 45.2587 56.0326 45.1172 55.9518C44.9756 55.8711 44.8577 55.7547 44.7752 55.6141ZM16.8076 55.8711C16.355 55.5994 16.2192 55.0183 16.4833 54.5736C16.7546 54.1362 17.3352 53.9934 17.7803 54.2569C18.2251 54.5286 18.3684 55.1089 18.097 55.5543C17.9236 55.8481 17.607 56.0064 17.2902 56.0064C17.1201 56.0058 16.9533 55.959 16.8076 55.8711ZM49.6238 52.1988C49.2693 51.8218 49.2844 51.2261 49.6691 50.8711C50.0462 50.5095 50.6419 50.5324 51.0038 50.9094C51.358 51.2864 51.3355 51.8896 50.9584 52.2438C50.7772 52.4095 50.5435 52.5 50.3098 52.5C50.1808 52.5002 50.0532 52.4735 49.9351 52.4216C49.817 52.3697 49.711 52.2939 49.6238 52.1988ZM11.9288 52.1457C11.5517 51.7841 11.5444 51.1884 11.8985 50.8114C12.2604 50.4344 12.8563 50.4263 13.2331 50.7812C13.6103 51.1427 13.6252 51.7384 13.2634 52.1155C13.0826 52.3113 12.8337 52.4019 12.5776 52.4019C12.3438 52.402 12.11 52.3195 11.9288 52.1457ZM53.6353 47.8328C53.2056 47.5382 53.0999 46.9506 53.3941 46.5206C53.688 46.0906 54.2686 45.9779 54.6986 46.2716C55.1283 46.5654 55.2414 47.1537 54.9476 47.5839C54.8609 47.7098 54.7449 47.8126 54.6095 47.8836C54.4741 47.9545 54.3235 47.9914 54.1707 47.991C53.9808 47.9899 53.7952 47.935 53.6353 47.8328ZM7.96999 47.4631C7.67628 47.033 7.79661 46.4454 8.22665 46.1509C8.65631 45.8645 9.24435 45.9779 9.53113 46.4072C9.82496 46.8372 9.71194 47.4255 9.28228 47.712C9.11621 47.8254 8.9354 47.8776 8.75434 47.8776C8.5999 47.8767 8.44797 47.8385 8.31143 47.7663C8.17489 47.6942 8.05776 47.5901 7.96999 47.4631ZM56.6138 42.6974C56.1311 42.5014 55.8974 41.9513 56.0859 41.4684C56.282 40.986 56.8325 40.7519 57.3149 40.9485C57.7976 41.137 58.0313 41.6871 57.8351 42.1702C57.6919 42.5391 57.3377 42.7577 56.9607 42.7577C56.8477 42.7577 56.727 42.743 56.6138 42.6974ZM5.10487 42.0413C4.90857 41.5515 5.15011 41.0089 5.63244 40.8123C6.11514 40.6238 6.66564 40.8579 6.85413 41.3402C7.05044 41.8226 6.8089 42.3734 6.32657 42.5692C6.21317 42.6148 6.10002 42.6296 5.97969 42.6296C5.6027 42.6296 5.24801 42.411 5.10487 42.0413ZM58.4084 37.0346C58.2866 37.0149 58.1699 36.9713 58.0649 36.9065C57.9599 36.8416 57.8688 36.7567 57.7966 36.6565C57.7245 36.5564 57.6728 36.443 57.6446 36.3229C57.6163 36.2028 57.612 36.0783 57.6319 35.9565C57.6393 35.9337 57.6393 35.919 57.6466 35.9036C57.6466 35.8888 57.6466 35.8733 57.6543 35.8586C57.674 35.7367 57.7175 35.6199 57.7824 35.5149C57.8473 35.4098 57.9322 35.3186 58.0324 35.2465C58.1326 35.1743 58.246 35.1226 58.3662 35.0944C58.4863 35.0661 58.6109 35.0619 58.7328 35.0818C59.2452 35.1651 59.5998 35.6473 59.5093 36.1599C59.5093 36.1827 59.5019 36.1974 59.5019 36.2128C59.5019 36.2275 59.4942 36.2503 59.4942 36.2658C59.4188 36.7254 59.0193 37.0501 58.5668 37.0501C58.514 37.0501 58.4611 37.0501 58.4084 37.0346ZM3.46864 36.1222C3.38548 35.6096 3.73223 35.1267 4.25286 35.0441C4.76543 34.9535 5.24801 35.3077 5.33092 35.8203C5.35083 35.9421 5.34653 36.0667 5.31827 36.1869C5.29001 36.307 5.23835 36.4204 5.16623 36.5206C5.09411 36.6208 5.00296 36.7058 4.89797 36.7708C4.79299 36.8357 4.67623 36.8793 4.55438 36.8991C4.50146 36.9064 4.44879 36.9139 4.39612 36.9139C3.94353 36.9139 3.54373 36.5825 3.46864 36.1222ZM57.9636 30.1348C57.9334 29.6149 58.333 29.1701 58.8609 29.14C59.3733 29.1172 59.8185 29.517 59.8487 30.0369C59.879 30.5575 59.4791 30.9949 58.9588 31.0251H58.9061C58.665 31.0255 58.4328 30.9333 58.2575 30.7677C58.0822 30.6021 57.977 30.3756 57.9636 30.1348ZM4.04156 30.9876C3.52131 30.9573 3.12176 30.5118 3.152 29.992C3.18186 29.4714 3.62702 29.0795 4.14727 29.1098C4.66753 29.14 5.06707 29.5848 5.03721 30.0973C5.02365 30.338 4.91843 30.5644 4.74315 30.73C4.56788 30.8955 4.33585 30.9877 4.09473 30.9876H4.04156ZM57.0362 24.4794C56.9003 23.9823 57.1945 23.4617 57.692 23.3188C58.1975 23.1826 58.7178 23.4771 58.8532 23.9742C58.9963 24.4793 58.7026 24.9999 58.1975 25.1354C58.1143 25.1582 58.0314 25.1737 57.9487 25.1737C57.5336 25.1738 57.1565 24.9021 57.0362 24.4794ZM4.81066 25.1054C4.30553 24.9625 4.01901 24.4419 4.15446 23.9442C4.29028 23.4389 4.81066 23.1452 5.31567 23.2888C5.8135 23.4243 6.10758 23.9442 5.97175 24.4501C5.85873 24.8647 5.47393 25.1356 5.06682 25.1356C4.97673 25.1355 4.89357 25.1282 4.81066 25.1054ZM54.9172 19.1636C54.6682 18.7041 54.8417 18.1304 55.3016 17.8896C55.7615 17.6406 56.3348 17.8138 56.5759 18.2813C56.8249 18.7342 56.6439 19.3072 56.1915 19.5561C56.0482 19.6312 55.8972 19.6614 55.7467 19.6614C55.4074 19.6614 55.083 19.4802 54.9172 19.1636ZM6.81658 19.5184C6.35668 19.2769 6.18293 18.704 6.43178 18.2438C6.67332 17.7835 7.24624 17.6105 7.70602 17.8521C8.1663 18.1003 8.33967 18.6658 8.09082 19.1261C7.92475 19.4501 7.60081 19.6312 7.26124 19.6312C7.10606 19.6303 6.95343 19.5916 6.81658 19.5184ZM51.6975 14.4206C51.3581 14.0215 51.4111 13.4258 51.8028 13.0935C52.2025 12.7541 52.7983 12.7998 53.1375 13.1989C53.4696 13.5987 53.4242 14.1944 53.0244 14.5265C52.8546 14.6729 52.6378 14.7531 52.4136 14.7526C52.15 14.7527 51.8859 14.6393 51.6975 14.4206ZM9.98334 14.5039C9.59123 14.1644 9.53856 13.5687 9.87813 13.1768C10.2172 12.777 10.8129 12.7321 11.205 13.0634C11.6048 13.4029 11.6498 13.9986 11.3108 14.3985C11.1296 14.6173 10.866 14.7299 10.5943 14.7299C10.3831 14.7299 10.1645 14.6547 9.98334 14.5039ZM47.5424 10.4773C47.1279 10.1606 47.0524 9.57235 47.3616 9.15769C47.6783 8.74315 48.274 8.65986 48.6885 8.97662C49.1035 9.29326 49.1785 9.88156 48.8619 10.2961C48.6811 10.5451 48.3947 10.6732 48.1156 10.6732C47.9121 10.6732 47.7159 10.6054 47.5424 10.4773ZM14.1607 10.2814C13.8441 9.86606 13.9269 9.27852 14.3419 8.96176C14.7565 8.64436 15.3448 8.72765 15.6615 9.14219C15.9782 9.55748 15.8953 10.1451 15.4803 10.4618C15.3068 10.5899 15.111 10.6585 14.9074 10.6585C14.6283 10.6585 14.3419 10.5221 14.1607 10.2814ZM42.6412 7.52145C42.1661 7.30272 41.9627 6.74466 42.1813 6.26964C42.2329 6.15698 42.3064 6.05565 42.3974 5.97147C42.4884 5.8873 42.5951 5.82195 42.7115 5.77919C42.8278 5.73642 42.9514 5.71708 43.0753 5.72228C43.1991 5.72748 43.3207 5.75712 43.4331 5.80949C43.9004 6.0281 44.1039 6.58628 43.893 7.0613C43.7269 7.40805 43.3878 7.61204 43.0333 7.61204C42.8977 7.61204 42.7693 7.58181 42.6412 7.52145ZM19.1376 7.05387C18.9189 6.57897 19.1225 6.02079 19.5975 5.80206C19.7099 5.74971 19.8315 5.72009 19.9553 5.71491C20.0792 5.70973 20.2028 5.72908 20.3192 5.77186C20.4355 5.81463 20.5422 5.87999 20.6332 5.96416C20.7242 6.04834 20.7976 6.14967 20.8493 6.26233C21.0679 6.72992 20.8643 7.29553 20.3894 7.51351C20.2613 7.57387 20.1255 7.59667 19.9973 7.59667C19.6353 7.59655 19.2959 7.40074 19.1376 7.05387ZM37.2122 5.69672C37.091 5.67066 36.9762 5.62081 36.8744 5.55006C36.7726 5.4793 36.6859 5.38905 36.6193 5.28453C36.5526 5.18001 36.5074 5.0633 36.4862 4.94117C36.465 4.81904 36.4682 4.69392 36.4958 4.57305C36.6015 4.06792 37.1065 3.74309 37.6117 3.85649C38.1247 3.96989 38.4413 4.46772 38.3356 4.98016C38.2377 5.41763 37.8456 5.71877 37.4158 5.71877C37.3478 5.71877 37.28 5.71146 37.2122 5.69672ZM24.695 4.96478C24.582 4.45234 24.9059 3.95452 25.4112 3.84187C25.924 3.72847 26.4218 4.05242 26.5348 4.55768C26.5617 4.67852 26.5644 4.80346 26.5429 4.92536C26.5214 5.04726 26.4761 5.16372 26.4095 5.26809C26.343 5.37245 26.2565 5.46267 26.155 5.53359C26.0536 5.6045 25.9392 5.65471 25.8183 5.68135C25.7515 5.6966 25.6833 5.70425 25.6148 5.70415C25.185 5.70403 24.7929 5.40213 24.695 4.96478ZM31.5116 5.07088C31.2616 5.07071 31.022 4.97135 30.8452 4.79461C30.6685 4.61787 30.5691 4.37821 30.569 4.12827C30.5764 3.60776 30.9986 3.18579 31.5189 3.18579C32.0391 3.18579 32.4615 3.60776 32.4615 4.12827C32.4541 4.64815 32.0318 5.07088 31.5189 5.07088H31.5116ZM31.4983 13.4588C31.2484 13.4588 31.0087 13.3595 30.8319 13.1828C30.6552 13.006 30.5559 12.7663 30.5559 12.5163V8.72841C30.5559 8.60464 30.5802 8.48208 30.6276 8.36773C30.675 8.25339 30.7444 8.14949 30.8319 8.06197C30.9194 7.97445 31.0233 7.90503 31.1377 7.85767C31.252 7.8103 31.3746 7.78592 31.4983 7.78592C31.6221 7.78591 31.7447 7.81027 31.8591 7.85763C31.9734 7.90499 32.0773 7.97441 32.1649 8.06193C32.2524 8.14945 32.3218 8.25335 32.3692 8.3677C32.4166 8.48206 32.441 8.60463 32.441 8.72841V12.5163C32.441 12.6401 32.4166 12.7627 32.3692 12.877C32.3218 12.9914 32.2524 13.0953 32.1649 13.1828C32.0773 13.2703 31.9734 13.3398 31.8591 13.3871C31.7447 13.4345 31.6221 13.4588 31.4983 13.4588ZM44.977 19.0413C44.8532 19.0414 44.7305 19.0171 44.6162 18.9697C44.5018 18.9223 44.3979 18.8527 44.3105 18.7651C44.223 18.6776 44.1535 18.5737 44.1061 18.4593C44.0587 18.345 44.0343 18.2224 44.0343 18.0986C44.0343 17.9749 44.0587 17.8523 44.1061 17.7379C44.1535 17.6236 44.223 17.5197 44.3105 17.4322L46.9887 14.7541C47.3568 14.3859 47.9533 14.3859 48.3215 14.7541C48.6897 15.1223 48.6897 15.7188 48.3215 16.0869L45.6434 18.7651C45.556 18.8528 45.4521 18.9223 45.3377 18.9697C45.2234 19.0171 45.1008 19.0414 44.977 19.0413ZM54.3473 32.5199H50.5598C50.3098 32.5199 50.07 32.4205 49.8933 32.2438C49.7165 32.067 49.6172 31.8273 49.6172 31.5773C49.6172 31.3273 49.7165 31.0876 49.8933 30.9108C50.07 30.7341 50.3098 30.6348 50.5598 30.6348H54.3473C54.5973 30.6348 54.837 30.7341 55.0138 30.9108C55.1906 31.0876 55.2899 31.3273 55.2899 31.5773C55.2899 31.8273 55.1906 32.067 55.0138 32.2438C54.837 32.4205 54.5973 32.5199 54.3473 32.5199ZM47.6551 48.6767C47.5313 48.6769 47.4087 48.6526 47.2943 48.6052C47.1799 48.5578 47.0761 48.4882 46.9887 48.4005L44.3105 45.7223C44.223 45.6348 44.1535 45.5309 44.1061 45.4165C44.0587 45.3022 44.0343 45.1796 44.0343 45.0558C44.0343 44.9321 44.0587 44.8095 44.1061 44.6951C44.1535 44.5808 44.223 44.4769 44.3105 44.3894C44.398 44.3019 44.5019 44.2324 44.6163 44.1851C44.7306 44.1377 44.8532 44.1133 44.977 44.1133C45.1007 44.1133 45.2233 44.1377 45.3376 44.1851C45.452 44.2324 45.5559 44.3019 45.6434 44.3894L48.3215 47.0676C48.409 47.1551 48.4785 47.259 48.5259 47.3733C48.5732 47.4876 48.5976 47.6102 48.5976 47.734C48.5976 47.8577 48.5732 47.9803 48.5259 48.0947C48.4785 48.209 48.409 48.3129 48.3215 48.4004C48.2341 48.4881 48.1303 48.5577 48.0159 48.6051C47.9015 48.6525 47.7789 48.6769 47.6551 48.6767ZM31.4983 55.3696C31.3746 55.3696 31.252 55.3452 31.1377 55.2979C31.0233 55.2505 30.9194 55.1811 30.8319 55.0936C30.7444 55.006 30.6749 54.9021 30.6276 54.7878C30.5802 54.6734 30.5559 54.5509 30.5559 54.4271V50.6392C30.5559 50.3892 30.6552 50.1494 30.8319 49.9727C31.0087 49.7959 31.2484 49.6966 31.4984 49.6966C31.7484 49.6966 31.9881 49.7959 32.1649 49.9727C32.3417 50.1494 32.441 50.3892 32.441 50.6392V54.4271C32.441 54.5509 32.4166 54.6734 32.3692 54.7878C32.3218 54.9021 32.2524 55.0061 32.1649 55.0936C32.0773 55.1811 31.9734 55.2505 31.8591 55.2979C31.7447 55.3452 31.6221 55.3696 31.4983 55.3696ZM15.3415 48.6767C15.2177 48.6769 15.0951 48.6526 14.9807 48.6052C14.8663 48.5578 14.7625 48.4882 14.6751 48.4005C14.5875 48.313 14.5181 48.2091 14.4707 48.0948C14.4233 47.9804 14.3989 47.8579 14.3989 47.7341C14.3989 47.6103 14.4233 47.4878 14.4707 47.3734C14.5181 47.2591 14.5875 47.1552 14.6751 47.0677L17.3533 44.3896C17.4409 44.302 17.5448 44.2326 17.6591 44.1852C17.7735 44.1379 17.896 44.1135 18.0198 44.1135C18.1436 44.1135 18.2662 44.1379 18.3805 44.1852C18.4949 44.2326 18.5988 44.302 18.6863 44.3896C18.7738 44.4771 18.8433 44.5809 18.8907 44.6953C18.938 44.8096 18.9624 44.9322 18.9624 45.056C18.9624 45.1797 18.938 45.3023 18.8907 45.4166C18.8433 45.531 18.7738 45.6349 18.6863 45.7224L16.0082 48.4006C15.9207 48.4883 15.8168 48.5578 15.7024 48.6052C15.588 48.6525 15.4653 48.6769 15.3415 48.6767ZM12.4366 32.5199H8.649C8.39902 32.5199 8.15929 32.4205 7.98252 32.2438C7.80576 32.067 7.70646 31.8273 7.70646 31.5773C7.70646 31.3273 7.80576 31.0876 7.98252 30.9108C8.15929 30.7341 8.39902 30.6348 8.649 30.6348H12.4366C12.5603 30.6348 12.6829 30.6591 12.7973 30.7065C12.9116 30.7539 13.0155 30.8233 13.103 30.9109C13.1906 30.9984 13.26 31.1023 13.3073 31.2167C13.3547 31.331 13.3791 31.4536 13.379 31.5774C13.3791 31.7011 13.3547 31.8237 13.3073 31.9381C13.26 32.0524 13.1906 32.1563 13.103 32.2438C13.0155 32.3314 12.9116 32.4008 12.7973 32.4481C12.6829 32.4955 12.5603 32.5199 12.4366 32.5199ZM18.0197 19.0413C17.8959 19.0414 17.7733 19.0171 17.6589 18.9697C17.5445 18.9223 17.4406 18.8527 17.3532 18.7651L14.675 16.0869C14.5874 15.9994 14.518 15.8955 14.4706 15.7812C14.4232 15.6669 14.3988 15.5443 14.3988 15.4205C14.3988 15.2967 14.4232 15.1742 14.4706 15.0598C14.518 14.9455 14.5874 14.8416 14.675 14.7541C14.7625 14.6666 14.8664 14.5971 14.9807 14.5498C15.0951 14.5024 15.2177 14.478 15.3414 14.478C15.4652 14.478 15.5878 14.5024 15.7021 14.5498C15.8165 14.5971 15.9204 14.6666 16.0079 14.7541L18.686 17.4322C18.7736 17.5197 18.843 17.6236 18.8904 17.738C18.9378 17.8523 18.9622 17.9749 18.9622 18.0986C18.9622 18.2224 18.9378 18.345 18.8904 18.4593C18.843 18.5737 18.7736 18.6776 18.686 18.7651C18.5987 18.8528 18.4948 18.9223 18.3805 18.9697C18.2661 19.0171 18.1435 19.0414 18.0197 19.0413Z" fill="url(#paint0_linear_557_1614)"/>
<path d="M31.4979 55.3689C25.1426 55.3689 19.168 52.8946 14.6746 48.4005C10.1809 43.9072 7.70605 37.9329 7.70605 31.5773C7.70605 25.2224 10.1811 19.2475 14.6746 14.7541C23.9507 5.47944 39.0443 5.47944 48.321 14.7541C52.8148 19.2473 55.2893 25.2224 55.2893 31.5773C55.2893 37.9329 52.8148 43.9072 48.321 48.4005C43.8274 52.8946 37.8528 55.3689 31.4979 55.3689ZM31.4979 9.68117C25.8879 9.68117 20.2781 11.8166 16.0076 16.0869C11.8698 20.2246 9.59114 25.726 9.59114 31.5773C9.59114 37.4293 11.8698 42.9299 16.0076 47.0676C20.1452 51.2054 25.6463 53.4837 31.4979 53.4837C37.3492 53.4837 42.8506 51.2054 46.9883 47.0676C51.1257 42.9299 53.4044 37.4293 53.4044 31.5773C53.4044 25.7261 51.1257 20.2246 46.9883 16.0869C42.7173 11.8167 37.1075 9.68117 31.4979 9.68117Z" fill="url(#paint1_linear_557_1614)"/>
<path d="M39.3009 40.3226C39.1771 40.3227 39.0545 40.2984 38.9402 40.251C38.8258 40.2036 38.7219 40.1341 38.6345 40.0464L30.8319 32.2439C30.6551 32.0671 30.5558 31.8274 30.5557 31.5775V21.643C30.5557 21.393 30.655 21.1533 30.8317 20.9765C31.0085 20.7997 31.2482 20.7004 31.4982 20.7004C31.7482 20.7004 31.9879 20.7997 32.1647 20.9765C32.3414 21.1533 32.4407 21.393 32.4407 21.643V31.1872L39.9672 38.7137C40.0548 38.8012 40.1242 38.9051 40.1716 39.0195C40.219 39.1338 40.2434 39.2564 40.2434 39.3801C40.2434 39.5039 40.219 39.6265 40.1716 39.7408C40.1242 39.8552 40.0548 39.959 39.9672 40.0465C39.8798 40.1342 39.776 40.2037 39.6616 40.251C39.5473 40.2984 39.4247 40.3227 39.3009 40.3226Z" fill="url(#paint2_linear_557_1614)"/>
<defs>
<linearGradient id="paint0_linear_557_1614" x1="3.15039" y1="59.8144" x2="59.7789" y2="3.11445" gradientUnits="userSpaceOnUse">
<stop stop-color="#D64E38"/>
<stop offset="1" stop-color="#E16E5C"/>
</linearGradient>
<linearGradient id="paint1_linear_557_1614" x1="7.70605" y1="55.3689" x2="55.2769" y2="7.78563" gradientUnits="userSpaceOnUse">
<stop stop-color="#D64E38"/>
<stop offset="1" stop-color="#E16E5C"/>
</linearGradient>
<linearGradient id="paint2_linear_557_1614" x1="30.5557" y1="40.3226" x2="46.1339" y2="32.6315" gradientUnits="userSpaceOnUse">
<stop stop-color="#D64E38"/>
<stop offset="1" stop-color="#E16E5C"/>
</linearGradient>
</defs>
</svg>
