<svg width="63" height="64" viewBox="0 0 63 64" fill="none" xmlns="http://www.w3.org/2000/svg">
<g clip-path="url(#clip0_557_1633)">
<path d="M40.2193 58.0689C40.0687 58.0688 39.9198 58.0374 39.782 57.9767C39.6441 57.916 39.5204 57.8273 39.4187 57.7163C39.317 57.6053 39.2394 57.4743 39.191 57.3317C39.1426 57.1891 39.1243 57.038 39.1373 56.888L39.9167 48.0149C39.9695 47.4176 40.4904 46.9839 41.0939 47.0279C41.3809 47.0532 41.6461 47.1914 41.8312 47.4121C42.0163 47.6328 42.1061 47.9181 42.0809 48.2051L41.4263 55.6523L43.6135 55.2445L46.3874 44.3596C46.4185 44.2367 46.4709 44.1201 46.5423 44.0153L48.7064 40.8461C50.2123 38.641 51.1111 36.0784 51.3126 33.4157C51.3697 32.6574 51.3697 31.8886 51.3126 31.1304C51.1113 28.4681 50.2129 25.9056 48.7076 23.7005L46.5421 20.5315C46.4707 20.4266 46.4183 20.31 46.3874 20.187L43.6135 9.30148L41.4263 8.89384L42.0784 16.3112C42.0909 16.4532 42.0754 16.5963 42.0326 16.7324C41.9898 16.8684 41.9206 16.9947 41.829 17.104C41.7374 17.2132 41.6251 17.3034 41.4986 17.3692C41.3722 17.4351 41.2339 17.4754 41.0919 17.4878C40.9497 17.5003 40.8065 17.4848 40.6704 17.4419C40.5342 17.3991 40.4079 17.3299 40.2985 17.2382C40.1891 17.1466 40.0989 17.0342 40.0329 16.9077C39.967 16.7811 39.9266 16.6428 39.9141 16.5007L39.1373 7.65881C39.1226 7.49194 39.1467 7.32394 39.2077 7.16793C39.2687 7.01193 39.365 6.87214 39.489 6.7595C39.6127 6.64641 39.7612 6.56371 39.9225 6.51798C40.0838 6.47224 40.2535 6.46472 40.4182 6.49601L44.6943 7.29333C44.898 7.33103 45.0865 7.42631 45.2377 7.56787C45.3888 7.70943 45.4962 7.89135 45.5472 8.09207L48.4454 19.4648L50.5008 22.4742C52.2214 24.9947 53.2484 27.9237 53.4784 30.9668C53.5445 31.8334 53.5445 32.7123 53.4784 33.5787C53.2482 36.622 52.221 39.5511 50.5002 42.0718L48.4454 45.0812L45.5472 56.4534C45.4962 56.6542 45.3888 56.8361 45.2377 56.9776C45.0865 57.1192 44.898 57.2145 44.6943 57.2522L40.4182 58.0495C40.3517 58.0632 40.2845 58.0689 40.2193 58.0689ZM22.8408 57.9819C22.7755 57.9819 22.7084 57.9755 22.6406 57.9631L18.8337 57.2534C18.6299 57.2156 18.4413 57.1202 18.2901 56.9786C18.1389 56.8369 18.0314 56.6549 17.9804 56.4541L15.0828 45.0825L13.0267 42.0718C11.3063 39.5514 10.2793 36.6228 10.0489 33.5799C9.98369 32.7128 9.98369 31.834 10.0489 30.9675C10.2789 27.9241 11.3064 24.995 13.028 22.4749L15.0828 19.4654L17.9802 8.09334C18.0312 7.89245 18.1386 7.71038 18.2899 7.5687C18.4412 7.42702 18.6299 7.33168 18.8337 7.29396L22.0812 6.6887C22.6785 6.57605 23.2385 6.96826 23.3493 7.55745C23.4579 8.14744 23.07 8.7142 22.4802 8.82367L19.9145 9.30212L17.1401 20.1876C17.109 20.3106 17.0566 20.4271 16.9853 20.5319L14.8217 23.7007C13.3157 25.9057 12.4167 28.4684 12.2151 31.131C12.1579 31.8917 12.1579 32.6557 12.2151 33.4164C12.417 36.0786 13.3155 38.6409 14.8205 40.8461L16.9853 44.0153C17.0569 44.121 17.1095 44.2365 17.1401 44.3596L19.9139 55.2445L23.0388 55.8276C23.6288 55.937 24.0174 56.5043 23.9079 57.0942C23.8613 57.3433 23.7292 57.5683 23.5344 57.7304C23.3395 57.8925 23.0942 57.9814 22.8408 57.9819Z" fill="url(#paint0_linear_557_1633)"/>
<path d="M22.8403 17.4007C22.6977 17.4008 22.5564 17.3728 22.4246 17.3183C22.2928 17.2637 22.173 17.1838 22.0721 17.0829C21.9713 16.9821 21.8912 16.8624 21.8366 16.7306C21.782 16.5988 21.7539 16.4576 21.7539 16.315V6.16758C21.7539 3.04277 24.2965 0.5 27.4215 0.5H35.6382C38.7633 0.5 41.3055 3.04261 41.3055 6.16774V15.9059C41.3055 16.0485 41.2775 16.1897 41.223 16.3215C41.1684 16.4533 41.0884 16.573 40.9876 16.6739C40.8867 16.7747 40.767 16.8547 40.6352 16.9092C40.5034 16.9638 40.3621 16.9918 40.2195 16.9917C40.0769 16.9917 39.9356 16.9637 39.8038 16.9092C39.672 16.8547 39.5522 16.7747 39.4513 16.6739C39.3504 16.573 39.2704 16.4533 39.2158 16.3215C39.1612 16.1898 39.1331 16.0485 39.1331 15.9059V6.16774C39.1331 4.24041 37.5657 2.6722 35.6382 2.6722H27.4216C25.4943 2.6722 23.9261 4.24041 23.9261 6.1679V16.315C23.9262 16.4576 23.8982 16.5988 23.8436 16.7306C23.7891 16.8623 23.7091 16.9821 23.6083 17.0829C23.5074 17.1837 23.3877 17.2637 23.2559 17.3183C23.1242 17.3728 22.9829 17.4008 22.8403 17.4007ZM35.6382 63.4997H27.4216C24.2967 63.4997 21.7539 60.9577 21.7539 57.8326V48.1267C21.7539 47.5269 22.2398 47.0403 22.8403 47.0403C23.4408 47.0403 23.9261 47.527 23.9261 48.1267V57.8326C23.9261 59.7599 25.4943 61.3275 27.4216 61.3275H35.6382C37.5657 61.3275 39.1331 59.7599 39.1331 57.8326V48.6165C39.1331 48.3283 39.2476 48.052 39.4513 47.8483C39.655 47.6445 39.9314 47.5301 40.2195 47.5301C40.3622 47.53 40.5034 47.5581 40.6352 47.6127C40.767 47.6673 40.8868 47.7474 40.9876 47.8483C41.0885 47.9491 41.1684 48.0689 41.223 48.2007C41.2775 48.3326 41.3055 48.4738 41.3055 48.6165V57.8326C41.3055 60.9575 38.7628 63.4997 35.6382 63.4997Z" fill="url(#paint1_linear_557_1633)"/>
<path d="M31.9234 51.294C21.5238 51.294 13.0635 42.761 13.0635 32.2739C13.0635 21.7862 21.5238 13.2532 31.9234 13.2532C42.3234 13.2532 50.7837 21.7864 50.7837 32.2739C50.7837 42.761 42.3234 51.294 31.9234 51.294ZM31.9234 15.4262C22.7216 15.4262 15.2357 22.984 15.2357 32.2739C15.2357 41.564 22.7216 49.1218 31.9234 49.1218C41.1258 49.1218 48.6115 41.564 48.6115 32.2739C48.6115 22.984 41.1258 15.4262 31.9234 15.4262Z" fill="url(#paint2_linear_557_1633)"/>
<path d="M31.5301 21.1378C31.2419 21.1378 30.9656 21.0234 30.7618 20.8196C30.5581 20.6159 30.4436 20.3396 30.4436 20.0514V14.6205C30.4436 14.4778 30.4717 14.3366 30.5264 14.2048C30.581 14.073 30.661 13.9533 30.7619 13.8525C30.8628 13.7516 30.9825 13.6717 31.1144 13.6171C31.2462 13.5626 31.3874 13.5346 31.5301 13.5347C31.6727 13.5346 31.8139 13.5626 31.9457 13.6171C32.0774 13.6717 32.1972 13.7517 32.298 13.8525C32.3989 13.9533 32.4788 14.0731 32.5334 14.2048C32.5879 14.3366 32.6159 14.4778 32.6158 14.6205V20.0514C32.6158 20.6513 32.1306 21.1378 31.5301 21.1378ZM31.5301 50.4654C31.2419 50.4654 30.9656 50.3509 30.7618 50.1472C30.5581 49.9435 30.4436 49.6671 30.4436 49.379V45.0346C30.4436 44.8919 30.4717 44.7506 30.5263 44.6188C30.5809 44.487 30.6609 44.3672 30.7618 44.2663C30.8627 44.1654 30.9825 44.0853 31.1143 44.0307C31.2461 43.9761 31.3874 43.948 31.5301 43.948C31.6727 43.948 31.814 43.9761 31.9458 44.0307C32.0775 44.0854 32.1973 44.1654 32.2981 44.2663C32.3989 44.3672 32.4789 44.487 32.5334 44.6188C32.5879 44.7507 32.6159 44.8919 32.6158 45.0346V49.379C32.6158 49.9788 32.1306 50.4654 31.5301 50.4654ZM19.5817 33.0861H14.151C14.0084 33.0861 13.8671 33.058 13.7353 33.0034C13.6034 32.9488 13.4837 32.8688 13.3828 32.768C13.2819 32.6671 13.2018 32.5473 13.1472 32.4155C13.0926 32.2837 13.0645 32.1425 13.0645 31.9998C13.0644 31.8571 13.0925 31.7159 13.1471 31.5841C13.2017 31.4523 13.2818 31.3325 13.3827 31.2317C13.4836 31.1308 13.6034 31.0508 13.7352 30.9963C13.8671 30.9418 14.0084 30.9138 14.151 30.9139H19.5815C19.7242 30.9138 19.8654 30.9418 19.9972 30.9963C20.129 31.0508 20.2488 31.1308 20.3496 31.2317C20.4505 31.3325 20.5305 31.4523 20.585 31.5841C20.6396 31.7159 20.6676 31.8572 20.6675 31.9998C20.6675 32.5997 20.182 33.0862 19.5815 33.0862L19.5817 33.0861ZM48.9094 33.0861H43.4784C43.1903 33.0861 42.914 32.9716 42.7103 32.7679C42.5065 32.5642 42.3921 32.2879 42.392 31.9998C42.392 31.8571 42.4201 31.7159 42.4747 31.5841C42.5293 31.4523 42.6093 31.3326 42.7102 31.2317C42.8111 31.1309 42.9309 31.0509 43.0627 30.9963C43.1945 30.9418 43.3358 30.9138 43.4784 30.9139H48.9094C49.052 30.9138 49.1933 30.9418 49.3251 30.9964C49.4568 31.0509 49.5766 31.1309 49.6774 31.2317C49.7783 31.3326 49.8582 31.4524 49.9128 31.5841C49.9673 31.7159 49.9953 31.8572 49.9952 31.9998C49.9952 32.5997 49.5099 33.0861 48.9094 33.0861ZM43.8525 45.3415C43.5753 45.3415 43.2988 45.2365 43.0869 45.0252L39.2352 41.1954C39.1341 41.0948 39.0537 40.9753 38.9987 40.8437C38.9438 40.7121 38.9153 40.5709 38.9149 40.4283C38.9145 40.2857 38.9422 40.1444 38.9964 40.0124C39.0506 39.8805 39.1303 39.7606 39.2309 39.6595C39.6542 39.2349 40.3415 39.2313 40.7667 39.6552L44.6183 43.485C44.7195 43.5855 44.7998 43.705 44.8548 43.8367C44.9098 43.9683 44.9383 44.1094 44.9387 44.2521C44.9391 44.3947 44.9114 44.536 44.8571 44.6679C44.8029 44.7998 44.7232 44.9198 44.6226 45.0209C44.5218 45.1226 44.4019 45.2034 44.2697 45.2584C44.1375 45.3134 43.9957 45.3417 43.8525 45.3415ZM23.0586 24.6607C22.7814 24.6607 22.5049 24.5557 22.2928 24.3443L18.4412 20.5144C18.34 20.4139 18.2597 20.2944 18.2047 20.1628C18.1498 20.0312 18.1213 19.8901 18.1209 19.7475C18.1205 19.6048 18.1482 19.4635 18.2024 19.3316C18.2566 19.1997 18.3363 19.0798 18.4369 18.9787C18.5374 18.8775 18.6569 18.7972 18.7885 18.7422C18.9201 18.6873 19.0612 18.6587 19.2038 18.6583C19.3464 18.6579 19.4877 18.6856 19.6197 18.7398C19.7516 18.794 19.8715 18.8737 19.9726 18.9742L23.8243 22.8041C23.9254 22.9046 24.0058 23.0241 24.0608 23.1557C24.1158 23.2873 24.1443 23.4285 24.1447 23.5711C24.1451 23.7137 24.1174 23.8551 24.0632 23.987C24.009 24.1189 23.9293 24.2389 23.8287 24.34C23.728 24.4418 23.6081 24.5226 23.4759 24.5777C23.3437 24.6327 23.2018 24.661 23.0586 24.6607ZM40.0009 24.6607C39.8577 24.661 39.7158 24.6327 39.5836 24.5777C39.4514 24.5226 39.3315 24.4418 39.2308 24.34C39.1301 24.2389 39.0504 24.119 38.9962 23.9871C38.9419 23.8551 38.9142 23.7138 38.9146 23.5712C38.915 23.4285 38.9436 23.2874 38.9986 23.1558C39.0536 23.0242 39.134 22.9047 39.2352 22.8042L43.0869 18.9744C43.1879 18.8736 43.3078 18.7938 43.4397 18.7395C43.5716 18.6851 43.713 18.6574 43.8556 18.6578C43.9983 18.6582 44.1395 18.6867 44.2711 18.7418C44.4027 18.7969 44.5222 18.8774 44.6226 18.9787C44.7233 19.0798 44.803 19.1997 44.8573 19.3316C44.9115 19.4635 44.9393 19.6048 44.9389 19.7475C44.9385 19.8901 44.9099 20.0313 44.8549 20.1629C44.7999 20.2945 44.7195 20.4139 44.6183 20.5144L40.7667 24.3443C40.6662 24.4448 40.5468 24.5246 40.4153 24.5789C40.2839 24.6332 40.1431 24.661 40.0009 24.6607ZM19.207 45.3415C19.0638 45.3417 18.922 45.3134 18.7898 45.2584C18.6576 45.2034 18.5376 45.1226 18.4369 45.0209C18.3363 44.9198 18.2566 44.7998 18.2024 44.6679C18.1481 44.536 18.1204 44.3947 18.1208 44.2521C18.1212 44.1094 18.1497 43.9683 18.2047 43.8367C18.2596 43.705 18.34 43.5855 18.4412 43.485L22.2928 39.6552C22.3938 39.5544 22.5137 39.4745 22.6457 39.4202C22.7776 39.3658 22.919 39.338 23.0616 39.3384C23.2043 39.3388 23.3456 39.3674 23.4772 39.4225C23.6088 39.4776 23.7283 39.5581 23.8287 39.6595C23.9294 39.7605 24.0092 39.8804 24.0635 40.0124C24.1178 40.1443 24.1456 40.2857 24.1452 40.4283C24.1447 40.571 24.1162 40.7122 24.0611 40.8438C24.0061 40.9754 23.9256 41.0949 23.8243 41.1954L19.9726 45.0252C19.8721 45.1257 19.7527 45.2053 19.6213 45.2596C19.4899 45.3139 19.3491 45.3417 19.207 45.3415ZM35.8733 36.3448C35.6387 36.345 35.4105 36.2686 35.2232 36.1273L30.8787 32.8687C30.754 32.7755 30.6509 32.6565 30.5764 32.5198C30.5019 32.3832 30.4577 32.2321 30.4468 32.0768C30.4356 31.9216 30.4579 31.7659 30.5123 31.6201C30.5667 31.4744 30.6518 31.342 30.7619 31.2321L35.1064 26.887C35.3101 26.6835 35.5863 26.5692 35.8743 26.5692C36.1623 26.5692 36.4385 26.6835 36.6422 26.887C36.7431 26.9878 36.8232 27.1075 36.8778 27.2393C36.9325 27.371 36.9606 27.5123 36.9606 27.6549C36.9606 27.7976 36.9325 27.9388 36.8778 28.0706C36.8232 28.2023 36.7431 28.322 36.6422 28.4228L33.1834 31.8822L36.526 34.3895C36.6403 34.475 36.7366 34.5822 36.8094 34.7049C36.8822 34.8277 36.93 34.9636 36.9502 35.1049C36.9704 35.2461 36.9626 35.39 36.9271 35.5282C36.8916 35.6665 36.8293 35.7964 36.7435 35.9105C36.6423 36.0456 36.5109 36.1552 36.3599 36.2306C36.2088 36.3061 36.0422 36.3452 35.8733 36.3448Z" fill="url(#paint3_linear_557_1633)"/>
</g>
<defs>
<linearGradient id="paint0_linear_557_1633" x1="10" y1="58.0689" x2="60.8556" y2="15.1621" gradientUnits="userSpaceOnUse">
<stop stop-color="#D64E38"/>
<stop offset="1" stop-color="#E16E5C"/>
</linearGradient>
<linearGradient id="paint1_linear_557_1633" x1="21.7539" y1="63.4997" x2="57.4217" y2="52.4304" gradientUnits="userSpaceOnUse">
<stop stop-color="#D64E38"/>
<stop offset="1" stop-color="#E16E5C"/>
</linearGradient>
<linearGradient id="paint2_linear_557_1633" x1="13.0635" y1="51.2942" x2="51.1031" y2="13.5753" gradientUnits="userSpaceOnUse">
<stop stop-color="#D64E38"/>
<stop offset="1" stop-color="#E16E5C"/>
</linearGradient>
<linearGradient id="paint3_linear_557_1633" x1="13.0645" y1="50.4654" x2="49.9952" y2="13.5347" gradientUnits="userSpaceOnUse">
<stop stop-color="#D64E38"/>
<stop offset="1" stop-color="#E16E5C"/>
</linearGradient>
<clipPath id="clip0_557_1633">
<rect width="63" height="63" fill="white" transform="translate(0 0.5)"/>
</clipPath>
</defs>
</svg>
