<svg width="58" height="71" viewBox="0 0 58 71" fill="none" xmlns="http://www.w3.org/2000/svg">
<path fill-rule="evenodd" clip-rule="evenodd" d="M24.5654 8.27628C24.4921 8.35365 24.4526 8.39453 24.4526 8.39453C23.9097 8.97263 23.921 9.89671 24.4794 10.4588C25.0364 11.0223 25.9304 11.0091 26.4733 10.4325C26.4733 10.4325 27.5365 9.3011 28.9297 7.90549C30.3229 9.3011 31.3862 10.4325 31.3862 10.4325C31.929 11.0091 32.8231 11.0223 33.3801 10.4588C33.9385 9.89671 33.9497 8.97263 33.4068 8.39453C33.4068 8.39453 33.3674 8.35365 33.294 8.27628C34.2924 8.39161 35.209 8.3814 35.828 8.20913C37.9658 7.61644 39.2363 5.33762 38.6638 3.1245C38.0913 0.911379 35.8901 -0.403941 33.7523 0.188755C33.1234 0.363936 31.9008 1.20626 30.557 2.39166C30.0338 2.85297 29.4811 3.36537 28.9297 3.88946C28.3784 3.36537 27.8256 2.85297 27.3024 2.39166C25.9586 1.20626 24.736 0.363936 24.1071 0.188755C21.9693 -0.403941 19.7681 0.911379 19.1956 3.1245C18.6231 5.33762 19.8937 7.61644 22.0314 8.20913C22.6504 8.3814 23.567 8.39161 24.5654 8.27628ZM31.8712 5.07631C32.125 5.13032 32.3845 5.18142 32.6454 5.22813C33.5845 5.39747 34.5335 5.54638 35.0976 5.38871C35.7321 5.21353 36.1087 4.53762 35.9394 3.8807C35.7688 3.22377 35.1159 2.83399 34.4814 3.00917C34.0555 3.12742 33.2997 3.8077 32.3873 4.61353C32.2181 4.76244 32.0461 4.91718 31.8712 5.07631ZM25.9882 5.07631C25.8133 4.91718 25.6413 4.76244 25.4721 4.61353C24.5598 3.8077 23.8039 3.12742 23.3781 3.00917C22.7435 2.83399 22.0906 3.22377 21.92 3.8807C21.7508 4.53762 22.1273 5.21353 22.7619 5.38871C23.3259 5.54638 24.2749 5.39747 25.214 5.22813C25.4749 5.18142 25.7344 5.13032 25.9882 5.07631Z" fill="#BC8100"/>
<rect x="1.25493" y="16.9587" width="55.3171" height="52.2398" rx="3.00597" stroke="#BC8100" stroke-width="2.49013"/>
<path d="M18.1885 33.5083V31.2664H22.9576V33.5083H18.1885ZM20.0839 35.526V31.3275H22.9576V35.526H20.0839ZM13.9085 35.526V28.5353H16.7822V35.526H13.9085ZM13.9085 28.5353C13.9085 27.7473 14.1055 27.0407 14.4995 26.4157C14.8935 25.7907 15.4302 25.3015 16.1096 24.9483C16.8026 24.595 17.5838 24.4184 18.4534 24.4184V26.6603C17.9371 26.6603 17.5295 26.8233 17.2306 27.1494C16.9316 27.4755 16.7822 27.9375 16.7822 28.5353H13.9085ZM13.9085 35.5056H16.7822C16.7822 36.1035 16.9316 36.5723 17.2306 36.9119C17.5295 37.238 17.9371 37.4011 18.4534 37.4011V39.643C17.5838 39.643 16.8026 39.4664 16.1096 39.1131C15.4302 38.7462 14.8935 38.2571 14.4995 37.6457C14.1055 37.0206 13.9085 36.3073 13.9085 35.5056ZM20.4711 29.1875C20.4168 28.3995 20.2062 27.7812 19.8393 27.3329C19.4861 26.8845 19.0173 26.6603 18.433 26.6603V24.4184C19.751 24.4184 20.8108 24.7988 21.6125 25.5597C22.4277 26.307 22.9101 27.36 23.0595 28.7188L20.4711 29.1875ZM22.9576 35.5056C22.9576 36.3073 22.7606 37.0206 22.3666 37.6457C21.9725 38.2571 21.4358 38.7462 20.7565 39.1131C20.0771 39.4664 19.3026 39.643 18.433 39.643V37.4011C18.9494 37.4011 19.3502 37.238 19.6355 36.9119C19.9344 36.5723 20.0839 36.1035 20.0839 35.5056H22.9576Z" fill="#BC8100"/>
<path d="M17.1525 54.0996V51.8373H21.1676V54.0996H17.1525ZM14.9921 45.6822H17.8659V60.2546H14.9921V45.6822ZM17.2544 45.6822H22.1866V47.9241H17.2544V45.6822Z" fill="#BC8100"/>
<path d="M38.7773 39.3169V24.7445H41.651V39.3169H38.7773Z" fill="#BC8100"/>
<path d="M35.1186 47.9241V45.6822H44.5957V47.9241H35.1186ZM38.4203 60.2546V45.6822H41.294V60.2546H38.4203Z" fill="#BC8100"/>
</svg>
