<svg width="59" height="71" viewBox="0 0 59 71" fill="none" xmlns="http://www.w3.org/2000/svg">
<path fill-rule="evenodd" clip-rule="evenodd" d="M25.0654 8.27628C24.9921 8.35365 24.9526 8.39453 24.9526 8.39453C24.4097 8.97263 24.421 9.89671 24.9794 10.4588C25.5364 11.0223 26.4304 11.0091 26.9733 10.4325C26.9733 10.4325 28.0365 9.3011 29.4297 7.90549C30.8229 9.3011 31.8862 10.4325 31.8862 10.4325C32.429 11.0091 33.3231 11.0223 33.8801 10.4588C34.4385 9.89671 34.4497 8.97263 33.9068 8.39453C33.9068 8.39453 33.8674 8.35365 33.794 8.27628C34.7924 8.39161 35.709 8.3814 36.328 8.20913C38.4658 7.61644 39.7363 5.33762 39.1638 3.1245C38.5913 0.911379 36.3901 -0.403941 34.2523 0.188755C33.6234 0.363936 32.4008 1.20626 31.057 2.39166C30.5338 2.85297 29.9811 3.36537 29.4297 3.88946C28.8784 3.36537 28.3256 2.85297 27.8024 2.39166C26.4586 1.20626 25.236 0.363936 24.6071 0.188755C22.4693 -0.403941 20.2681 0.911379 19.6956 3.1245C19.1231 5.33762 20.3937 7.61644 22.5314 8.20913C23.1504 8.3814 24.067 8.39161 25.0654 8.27628ZM32.3712 5.07631C32.625 5.13032 32.8845 5.18142 33.1454 5.22813C34.0845 5.39747 35.0335 5.54638 35.5976 5.38871C36.2321 5.21353 36.6087 4.53762 36.4394 3.8807C36.2688 3.22377 35.6159 2.83399 34.9814 3.00917C34.5555 3.12742 33.7997 3.8077 32.8873 4.61353C32.7181 4.76244 32.5461 4.91718 32.3712 5.07631ZM26.4882 5.07631C26.3133 4.91718 26.1413 4.76244 25.9721 4.61353C25.0598 3.8077 24.3039 3.12742 23.8781 3.00917C23.2435 2.83399 22.5906 3.22377 22.42 3.8807C22.2508 4.53762 22.6273 5.21353 23.2619 5.38871C23.8259 5.54638 24.7749 5.39747 25.714 5.22813C25.9749 5.18142 26.2344 5.13032 26.4882 5.07631Z" fill="#B1395B"/>
<rect x="1.75493" y="16.9587" width="55.3171" height="52.2398" rx="3.00597" stroke="#B1395B" stroke-width="2.49013"/>
<path d="M18.6885 33.5083V31.2664H23.4576V33.5083H18.6885ZM20.5839 35.526V31.3275H23.4576V35.526H20.5839ZM14.4085 35.526V28.5353H17.2822V35.526H14.4085ZM14.4085 28.5353C14.4085 27.7473 14.6055 27.0407 14.9995 26.4157C15.3935 25.7907 15.9302 25.3015 16.6096 24.9483C17.3026 24.595 18.0838 24.4184 18.9534 24.4184V26.6603C18.4371 26.6603 18.0295 26.8233 17.7306 27.1494C17.4316 27.4755 17.2822 27.9375 17.2822 28.5353H14.4085ZM14.4085 35.5056H17.2822C17.2822 36.1035 17.4316 36.5723 17.7306 36.9119C18.0295 37.238 18.4371 37.4011 18.9534 37.4011V39.643C18.0838 39.643 17.3026 39.4664 16.6096 39.1131C15.9302 38.7462 15.3935 38.2571 14.9995 37.6457C14.6055 37.0206 14.4085 36.3073 14.4085 35.5056ZM20.9711 29.1875C20.9168 28.3995 20.7062 27.7812 20.3393 27.3329C19.9861 26.8845 19.5173 26.6603 18.933 26.6603V24.4184C20.251 24.4184 21.3108 24.7988 22.1125 25.5597C22.9277 26.307 23.4101 27.36 23.5595 28.7188L20.9711 29.1875ZM23.4576 35.5056C23.4576 36.3073 23.2606 37.0206 22.8666 37.6457C22.4725 38.2571 21.9358 38.7462 21.2565 39.1131C20.5771 39.4664 19.8026 39.643 18.933 39.643V37.4011C19.4494 37.4011 19.8502 37.238 20.1355 36.9119C20.4344 36.5723 20.5839 36.1035 20.5839 35.5056H23.4576Z" fill="#B1395B"/>
<path d="M17.6525 54.0996V51.8373H21.6676V54.0996H17.6525ZM15.4921 45.6822H18.3659V60.2546H15.4921V45.6822ZM17.7544 45.6822H22.6866V47.9241H17.7544V45.6822Z" fill="#B1395B"/>
<path d="M39.2773 39.3169V24.7445H42.151V39.3169H39.2773Z" fill="#B1395B"/>
<path d="M35.6186 47.9241V45.6822H45.0957V47.9241H35.6186ZM38.9203 60.2546V45.6822H41.794V60.2546H38.9203Z" fill="#B1395B"/>
</svg>
