<svg width="24" height="25" viewBox="0 0 24 25" fill="none" xmlns="http://www.w3.org/2000/svg">
<path d="M5.625 7.25C6.24632 7.25 6.75 6.74632 6.75 6.125C6.75 5.50368 6.24632 5 5.625 5C5.00368 5 4.5 5.50368 4.5 6.125C4.5 6.74632 5.00368 7.25 5.625 7.25Z" fill="#7B7B7D"/>
<path d="M12 7.25C12.6213 7.25 13.125 6.74632 13.125 6.125C13.125 5.50368 12.6213 5 12 5C11.3787 5 10.875 5.50368 10.875 6.125C10.875 6.74632 11.3787 7.25 12 7.25Z" fill="#7B7B7D"/>
<path d="M18.375 7.25C18.9963 7.25 19.5 6.74632 19.5 6.125C19.5 5.50368 18.9963 5 18.375 5C17.7537 5 17.25 5.50368 17.25 6.125C17.25 6.74632 17.7537 7.25 18.375 7.25Z" fill="#7B7B7D"/>
<path d="M5.625 13.625C6.24632 13.625 6.75 13.1213 6.75 12.5C6.75 11.8787 6.24632 11.375 5.625 11.375C5.00368 11.375 4.5 11.8787 4.5 12.5C4.5 13.1213 5.00368 13.625 5.625 13.625Z" fill="#7B7B7D"/>
<path d="M12 13.625C12.6213 13.625 13.125 13.1213 13.125 12.5C13.125 11.8787 12.6213 11.375 12 11.375C11.3787 11.375 10.875 11.8787 10.875 12.5C10.875 13.1213 11.3787 13.625 12 13.625Z" fill="#7B7B7D"/>
<path d="M18.375 13.625C18.9963 13.625 19.5 13.1213 19.5 12.5C19.5 11.8787 18.9963 11.375 18.375 11.375C17.7537 11.375 17.25 11.8787 17.25 12.5C17.25 13.1213 17.7537 13.625 18.375 13.625Z" fill="#7B7B7D"/>
<path d="M5.625 20C6.24632 20 6.75 19.4963 6.75 18.875C6.75 18.2537 6.24632 17.75 5.625 17.75C5.00368 17.75 4.5 18.2537 4.5 18.875C4.5 19.4963 5.00368 20 5.625 20Z" fill="#7B7B7D"/>
<path d="M12 20C12.6213 20 13.125 19.4963 13.125 18.875C13.125 18.2537 12.6213 17.75 12 17.75C11.3787 17.75 10.875 18.2537 10.875 18.875C10.875 19.4963 11.3787 20 12 20Z" fill="#7B7B7D"/>
<path d="M18.375 20C18.9963 20 19.5 19.4963 19.5 18.875C19.5 18.2537 18.9963 17.75 18.375 17.75C17.7537 17.75 17.25 18.2537 17.25 18.875C17.25 19.4963 17.7537 20 18.375 20Z" fill="#7B7B7D"/>
</svg>
