<svg width="21" height="22" viewBox="0 0 21 22" fill="none" xmlns="http://www.w3.org/2000/svg">
<g clip-path="url(#clip0_129_3079)">
<path d="M4 8.5V6.5C4 3.7 6.2 1.5 9 1.5C11.8 1.5 14 3.7 14 6.5V8.5C15.7 8.5 17 9.8 17 11.5V18.5C17 20.2 15.7 21.5 14 21.5H4C2.3 21.5 1 20.2 1 18.5V11.5C1 9.8 2.3 8.5 4 8.5ZM12 6.5C12 4.8 10.7 3.5 9 3.5C7.3 3.5 6 4.8 6 6.5V8.5H12V6.5Z" fill="black"/>
<path d="M4 8.5V6.5C4 3.7 6.2 1.5 9 1.5C11.8 1.5 14 3.7 14 6.5V8.5C15.7 8.5 17 9.8 17 11.5V18.5C17 20.2 15.7 21.5 14 21.5H4C2.3 21.5 1 20.2 1 18.5V11.5C1 9.8 2.3 8.5 4 8.5ZM12 6.5C12 4.8 10.7 3.5 9 3.5C7.3 3.5 6 4.8 6 6.5V8.5H12V6.5Z" fill="white"/>
</g>
<defs>
<clipPath id="clip0_129_3079">
<rect width="21" height="22" fill="white" transform="matrix(-1 0 0 1 21 0)"/>
</clipPath>
</defs>
</svg>
