<svg width="148" height="31" viewBox="0 0 148 31" fill="none" xmlns="http://www.w3.org/2000/svg">
<path d="M0.831663 11.8716C0.831663 8.77595 3.44216 6.58129 7.11534 6.58129C10.7885 6.58129 13.0987 8.61424 13.0987 11.8485H9.37931C9.37931 10.6472 8.47834 9.90794 7.06913 9.90794C5.54442 9.90794 4.57415 10.601 4.57415 11.733C4.57415 12.7726 5.10549 13.2808 6.30678 13.5349L8.87107 14.0663C11.9205 14.69 13.3759 16.1454 13.3759 18.8483C13.3759 22.1519 10.7885 24.3003 6.86122 24.3003C3.04943 24.3003 0.577544 22.2443 0.577544 19.0331H4.29692C4.29692 20.2806 5.22099 20.9737 6.88432 20.9737C8.57075 20.9737 9.63343 20.3037 9.63343 19.2179C9.63343 18.2708 9.19449 17.7856 8.06251 17.5546L5.45201 17.0233C2.40258 16.3995 0.831663 14.6669 0.831663 11.8716ZM26.7143 24H15.8565V6.90471H26.7143V10.37H19.5989V13.7197H25.9057V17.0002H19.5989V20.5347H26.7143V24ZM33.5186 6.90471V24H29.7762V6.90471H33.5186ZM40.8282 6.90471V15.0827L46.9963 6.90471H51.4088L45.8182 14.2049L51.455 24H47.135L43.3694 17.3929L40.8282 20.7196V24H37.0857V6.90471H40.8282Z" fill="white"/>
<path d="M81.023 24H77.396V6.90471H81.023L86.1054 19.6569L91.2109 6.90471H94.884V24H91.2571V20.4192C91.2571 16.723 91.2571 15.9144 91.4419 14.6438L87.8149 24H84.3958L80.792 14.6438C80.9999 15.9144 81.023 17.3467 81.023 19.2179V24ZM114.246 15.4293C114.246 20.6502 110.804 24.2772 105.837 24.2772C100.894 24.2772 97.4976 20.6733 97.4976 15.4524C97.4976 10.2314 100.917 6.60439 105.86 6.60439C110.827 6.60439 114.246 10.2083 114.246 15.4293ZM110.296 15.4293C110.296 12.1719 108.633 10.2083 105.884 10.2083C103.111 10.2083 101.448 12.1719 101.448 15.4293C101.448 18.7097 103.111 20.6733 105.884 20.6733C108.633 20.6733 110.296 18.6635 110.296 15.4293ZM123.553 24H116.854V6.90471H123.322C128.336 6.90471 131.824 10.4162 131.824 15.4986C131.824 20.4885 128.428 24 123.553 24ZM122.953 10.37H120.596V20.5347H123.184C126.141 20.5347 127.874 18.6635 127.874 15.4986C127.874 12.2643 126.048 10.37 122.953 10.37ZM133.481 11.8716C133.481 8.77595 136.092 6.58129 139.765 6.58129C143.438 6.58129 145.748 8.61424 145.748 11.8485H142.029C142.029 10.6472 141.128 9.90794 139.719 9.90794C138.194 9.90794 137.224 10.601 137.224 11.733C137.224 12.7726 137.755 13.2808 138.956 13.5349L141.521 14.0663C144.57 14.69 146.026 16.1454 146.026 18.8483C146.026 22.1519 143.438 24.3003 139.511 24.3003C135.699 24.3003 133.227 22.2443 133.227 19.0331H136.947C136.947 20.2806 137.871 20.9737 139.534 20.9737C141.22 20.9737 142.283 20.3037 142.283 19.2179C142.283 18.2708 141.844 17.7856 140.712 17.5546L138.102 17.0233C135.052 16.3995 133.481 14.6669 133.481 11.8716Z" fill="white"/>
<g clip-path="url(#clip0_557_1429)">
<path fill-rule="evenodd" clip-rule="evenodd" d="M57.3125 23.2567V24.1233C53.6081 23.1467 50.8747 19.7675 50.8682 15.7471V15.7324C50.8747 11.7118 53.6081 8.33282 57.3125 7.35596V9.98442C55.006 10.8727 53.3677 13.1142 53.3651 15.7395C53.3682 18.3651 55.006 20.6065 57.3125 21.4951V23.2567ZM51.7005 15.7324V15.7468C51.7062 18.978 53.6598 21.7508 56.4475 22.9467V22.027C54.1332 20.8892 52.5385 18.505 52.5331 15.7468V15.7324C52.5385 12.9745 54.1332 10.5902 56.4475 9.45249V8.53275C53.6606 9.72841 51.7062 12.5013 51.7005 15.7324Z" fill="white"/>
<path fill-rule="evenodd" clip-rule="evenodd" d="M56.7572 15.1529C56.902 14.4704 57.2936 13.8658 57.8565 13.4558C58.4194 13.0458 59.1137 12.8593 59.8056 12.9323C60.4974 13.0054 61.1378 13.3327 61.6033 13.8513C62.0688 14.3699 62.3263 15.043 62.3263 15.7408C62.3263 16.4386 62.0688 17.1116 61.6033 17.6302C61.1378 18.1488 60.4974 18.4762 59.8056 18.5492C59.1137 18.6222 58.4194 18.4358 57.8565 18.0257C57.2936 17.6157 56.902 17.0111 56.7572 16.3286H54.2305C54.4773 18.5599 56.096 20.3763 58.2215 20.9098V22.6188C58.6487 22.6992 59.0825 22.7395 59.5172 22.7393C62.2456 22.7393 64.6088 21.17 65.7583 18.8822H66.6781C65.4691 21.6445 62.7179 23.5742 59.5172 23.5742C58.9352 23.5745 58.355 23.5099 57.7873 23.3813V24.2355C58.3567 24.3511 58.9362 24.4093 59.5172 24.409C63.5043 24.409 66.8612 21.703 67.8623 18.0222H65.2321C64.3259 20.2969 62.1087 21.9042 59.5172 21.9042C59.404 21.9042 59.2915 21.9012 59.1797 21.895V21.0589C59.2911 21.0657 59.4037 21.0692 59.5172 21.0694C61.999 21.0694 64.0861 19.3627 64.6723 17.0553C64.817 16.2202 64.8667 15.3602 64.6723 14.4263C64.0861 12.1188 62.0003 10.4124 59.5172 10.4124C59.4038 10.4124 59.2913 10.4159 59.1797 10.4229V9.58572C59.2915 9.5796 59.404 9.57663 59.5172 9.57681C62.1087 9.57681 64.3259 11.1839 65.2321 13.4588H67.8623C66.861 9.77779 63.5043 7.07202 59.5172 7.07202C58.9362 7.07176 58.3567 7.12987 57.7873 7.24549V8.09946C58.355 7.97112 58.9352 7.90652 59.5172 7.90686C62.7179 7.90686 65.4691 9.83622 66.6781 12.5988H65.7583C64.6088 10.311 62.2456 8.74171 59.5172 8.74171C59.0825 8.74155 58.6487 8.78181 58.2215 8.86198V10.571C56.096 11.1045 54.4781 12.9211 54.2305 15.1529H56.7572Z" fill="url(#paint0_linear_557_1429)"/>
</g>
<defs>
<linearGradient id="paint0_linear_557_1429" x1="54.2305" y1="24.409" x2="71.0781" y2="11.1619" gradientUnits="userSpaceOnUse">
<stop stop-color="#D64E38"/>
<stop offset="1" stop-color="#E16E5C"/>
</linearGradient>
<clipPath id="clip0_557_1429">
<rect width="16.994" height="17.3362" fill="white" transform="translate(50.8682 7.07178)"/>
</clipPath>
</defs>
</svg>
