<svg width="94" height="21" viewBox="0 0 94 21" fill="none" xmlns="http://www.w3.org/2000/svg">
<g clip-path="url(#clip0_129_3060)">
<g clip-path="url(#clip1_129_3060)">
<path d="M21.233 18.2692H17.2637L19.7464 2.78076H23.7155L21.233 18.2692Z" fill="#00579F"/>
<path d="M35.6218 3.1594C34.8389 2.84602 33.5971 2.5 32.0616 2.5C28.1417 2.5 25.3814 4.60895 25.3645 7.62412C25.3319 9.8487 27.3408 11.0843 28.8433 11.826C30.379 12.584 30.901 13.0787 30.901 13.7543C30.8854 14.7919 29.6601 15.2702 28.5173 15.2702C26.9325 15.2702 26.0834 15.0236 24.793 14.4464L24.2703 14.1989L23.7148 17.6757C24.6458 18.1036 26.361 18.4834 28.1417 18.5C32.3067 18.5 35.0181 16.4237 35.0503 13.2105C35.0661 11.4474 34.0053 10.0964 31.7184 8.99242C30.3301 8.28374 29.4799 7.80589 29.4799 7.08079C29.4962 6.4216 30.199 5.74643 31.7662 5.74643C33.0566 5.71336 34.0047 6.02631 34.7229 6.33948L35.082 6.50394L35.6218 3.1594Z" fill="#00579F"/>
<path d="M40.899 12.7822C41.2259 11.8924 42.4838 8.44865 42.4838 8.44865C42.4673 8.48172 42.81 7.54244 43.006 6.96582L43.2834 8.30039C43.2834 8.30039 44.0351 12.0078 44.1983 12.7822C43.578 12.7822 41.683 12.7822 40.899 12.7822ZM45.7987 2.78076H42.7284C41.7816 2.78076 41.0623 3.06064 40.6538 4.06584L34.7578 18.269H38.9227C38.9227 18.269 39.6084 16.3573 39.7558 15.9456C40.2127 15.9456 44.2643 15.9456 44.8521 15.9456C44.9661 16.4894 45.3257 18.269 45.3257 18.269H49.0009L45.7987 2.78076Z" fill="#00579F"/>
<path d="M13.9484 2.78076L10.0611 13.3424L9.63632 11.2004C8.91764 8.72875 6.66371 6.0434 4.14844 4.70816L7.70906 18.2528H11.9065L18.1457 2.78076H13.9484Z" fill="#00579F"/>
<path d="M6.45162 2.78076H0.0653342L0 3.09371C4.9817 4.37901 8.28099 7.47718 9.63651 11.201L8.24821 4.08271C8.01965 3.09349 7.31725 2.81339 6.45162 2.78076Z" fill="#F4A622"/>
</g>
<path d="M81.9607 2.63892H73.0381V18.3611H81.9607V2.63892Z" fill="#FF5F00"/>
<path d="M73.6049 10.5C73.6049 7.30556 75.1345 4.47222 77.4855 2.63889C75.7576 1.30556 73.5766 0.5 71.1972 0.5C65.5604 0.5 61 4.97222 61 10.5C61 16.0278 65.5604 20.5 71.1972 20.5C73.5766 20.5 75.7576 19.6944 77.4855 18.3611C75.1345 16.5556 73.6049 13.6944 73.6049 10.5Z" fill="#EB001B"/>
<path d="M94.0002 10.5C94.0002 16.0278 89.4397 20.5 83.8029 20.5C81.4236 20.5 79.2425 19.6944 77.5146 18.3611C79.894 16.5278 81.3953 13.6944 81.3953 10.5C81.3953 7.30556 79.8657 4.47222 77.5146 2.63889C79.2425 1.30556 81.4236 0.5 83.8029 0.5C89.4397 0.5 94.0002 5 94.0002 10.5Z" fill="#F79E1B"/>
</g>
<defs>
<clipPath id="clip0_129_3060">
<rect width="94" height="20" fill="white" transform="translate(0 0.5)"/>
</clipPath>
<clipPath id="clip1_129_3060">
<rect width="49" height="16" fill="white" transform="translate(0 2.5)"/>
</clipPath>
</defs>
</svg>
