<svg width="76" height="19" viewBox="0 0 76 19" fill="none" xmlns="http://www.w3.org/2000/svg">
<path d="M28.4156 4.59033H24.2102C24.071 4.59025 23.9363 4.63917 23.8304 4.72828C23.7246 4.8174 23.6545 4.94085 23.6328 5.07639L21.9319 15.7049C21.9241 15.7542 21.9272 15.8046 21.9411 15.8526C21.9549 15.9006 21.9792 15.9451 22.0121 15.983C22.0451 16.0209 22.086 16.0513 22.132 16.0722C22.178 16.093 22.2281 16.1037 22.2788 16.1037H24.2865C24.4258 16.1037 24.5605 16.0547 24.6664 15.9655C24.7723 15.8762 24.8423 15.7527 24.8639 15.617L25.3226 12.7503C25.3441 12.6148 25.4141 12.4913 25.5198 12.402C25.6256 12.3128 25.7602 12.2637 25.8994 12.2637H27.2307C30.0009 12.2637 31.5997 10.9425 32.0172 8.32427C32.2054 7.17882 32.0252 6.27882 31.481 5.64851C30.8833 4.95639 29.8232 4.59033 28.4156 4.59033ZM28.9008 8.47215C28.6708 9.95942 27.5179 9.95942 26.403 9.95942H25.7684L26.2136 7.18185C26.2267 7.10059 26.2687 7.02658 26.3321 6.97314C26.3956 6.9197 26.4763 6.89033 26.5598 6.89033H26.8507C27.6101 6.89033 28.3265 6.89033 28.6967 7.317C28.9174 7.57154 28.9851 7.94973 28.9008 8.47215ZM40.9864 8.42427H38.9726C38.8891 8.42427 38.8084 8.45364 38.7449 8.50708C38.6814 8.56052 38.6394 8.63452 38.6264 8.71579L38.5372 9.27094L38.3964 9.06973C37.9604 8.44609 36.9882 8.2376 36.0179 8.2376C33.7925 8.2376 31.8918 9.89882 31.5216 12.2291C31.3291 13.3915 31.6028 14.5031 32.2718 15.2782C32.8855 15.9909 33.7636 16.2879 34.8083 16.2879C36.6015 16.2879 37.5958 15.1515 37.5958 15.1515L37.506 15.7031C37.498 15.7524 37.5009 15.8028 37.5146 15.8509C37.5283 15.899 37.5524 15.9436 37.5852 15.9816C37.6181 16.0196 37.6589 16.0501 37.7049 16.0711C37.7509 16.0921 37.8009 16.103 37.8516 16.1031H39.6656C39.8049 16.1031 39.9397 16.0541 40.0455 15.9649C40.1514 15.8756 40.2215 15.752 40.243 15.6164L41.3314 8.82306C41.3394 8.77386 41.3365 8.72353 41.3229 8.67555C41.3092 8.62758 41.2851 8.58309 41.2523 8.54517C41.2195 8.50725 41.1788 8.47681 41.1329 8.45593C41.087 8.43506 41.037 8.42426 40.9864 8.42427ZM38.1793 12.2873C37.985 13.4212 37.0719 14.1825 35.9072 14.1825C35.3224 14.1825 34.8551 13.9976 34.555 13.6473C34.2574 13.2994 34.1442 12.8043 34.2389 12.2528C34.4203 11.1285 35.3489 10.3425 36.4957 10.3425C37.0676 10.3425 37.5324 10.5297 37.8387 10.8831C38.1455 11.24 38.2673 11.7382 38.1793 12.2873ZM51.7119 8.42427H49.6882C49.5927 8.42442 49.4988 8.44752 49.4144 8.49156C49.3301 8.5356 49.2579 8.59925 49.2042 8.677L46.4131 12.7291L45.23 8.83518C45.1937 8.71642 45.1195 8.61233 45.0185 8.53833C44.9175 8.46432 44.795 8.42433 44.6692 8.42427H42.6805C42.6247 8.42412 42.5697 8.43712 42.52 8.46218C42.4703 8.48724 42.4274 8.52363 42.3948 8.56834C42.3623 8.61304 42.3411 8.66475 42.3329 8.71918C42.3247 8.77361 42.3299 8.82917 42.3479 8.88124L44.577 15.3285L42.4813 18.2443C42.4441 18.296 42.422 18.3568 42.4175 18.42C42.4129 18.4833 42.4262 18.5465 42.4557 18.6028C42.4852 18.6592 42.5299 18.7064 42.5849 18.7394C42.6398 18.7723 42.7029 18.7898 42.7673 18.7897H44.7885C44.8829 18.7899 44.9759 18.7674 45.0595 18.7244C45.1431 18.6813 45.2149 18.6189 45.2687 18.5425L51.9997 8.9667C52.0361 8.91489 52.0575 8.85423 52.0615 8.79129C52.0655 8.72835 52.052 8.66553 52.0223 8.60965C51.9927 8.55377 51.9481 8.50695 51.8933 8.47427C51.8386 8.44159 51.7759 8.4243 51.7119 8.42427Z" fill="#022273"/>
<path d="M58.4118 4.59021H54.2058C54.0667 4.59026 53.9321 4.63925 53.8264 4.72835C53.7207 4.81746 53.6507 4.94083 53.629 5.07627L51.9281 15.7048C51.9202 15.754 51.9232 15.8043 51.937 15.8523C51.9507 15.9003 51.9748 15.9447 52.0077 15.9827C52.0405 16.0206 52.0813 16.051 52.1272 16.0719C52.1732 16.0927 52.2231 16.1035 52.2737 16.1035H54.4321C54.5295 16.1034 54.6236 16.069 54.6975 16.0066C54.7715 15.9441 54.8204 15.8577 54.8355 15.7629L55.3182 12.7502C55.3397 12.6147 55.4097 12.4911 55.5154 12.4019C55.6212 12.3127 55.7558 12.2636 55.895 12.2635H57.2257C59.9965 12.2635 61.5947 10.9423 62.0128 8.32414C62.2016 7.17869 62.0202 6.27869 61.476 5.64839C60.8789 4.95627 59.8194 4.59021 58.4118 4.59021ZM58.897 8.47202C58.6677 9.9593 57.5147 9.9593 56.3992 9.9593H55.7652L56.2111 7.18172C56.2238 7.10046 56.2657 7.02639 56.3291 6.97291C56.3925 6.91944 56.4732 6.8901 56.5566 6.89021H56.8475C57.6063 6.89021 58.3233 6.89021 58.6935 7.31687C58.9142 7.57142 58.9813 7.9496 58.897 8.47202ZM70.982 8.42414H68.9694C68.8859 8.42392 68.8051 8.45321 68.7417 8.50671C68.6783 8.5602 68.6365 8.63434 68.6238 8.71566L68.5347 9.27081L68.3932 9.0696C67.9572 8.44596 66.9857 8.23748 66.0153 8.23748C63.7899 8.23748 61.8898 9.89869 61.5196 12.229C61.3278 13.3914 61.6002 14.5029 62.2692 15.2781C62.8842 15.9908 63.761 16.2878 64.8058 16.2878C66.5989 16.2878 67.5932 15.1514 67.5932 15.1514L67.5034 15.7029C67.4954 15.7523 67.4984 15.8029 67.5121 15.851C67.5259 15.8992 67.5501 15.9439 67.5831 15.9819C67.6161 16.0199 67.657 16.0505 67.7032 16.0714C67.7493 16.0923 67.7995 16.103 67.8503 16.1029H69.6636C69.8029 16.1029 69.9375 16.0538 70.0432 15.9646C70.149 15.8753 70.2189 15.7518 70.2404 15.6163L71.3295 8.82293C71.3372 8.77358 71.334 8.72316 71.3201 8.67514C71.3061 8.62713 71.2818 8.58265 71.2488 8.54476C71.2158 8.50687 71.1749 8.47648 71.1288 8.45566C71.0828 8.43484 71.0327 8.42409 70.982 8.42414ZM68.1749 12.2872C67.9818 13.4211 67.0675 14.1823 65.9028 14.1823C65.3192 14.1823 64.8507 13.9975 64.5506 13.6472C64.253 13.2993 64.1411 12.8041 64.2345 12.2526C64.4172 11.1284 65.3444 10.3423 66.4913 10.3423C67.0631 10.3423 67.528 10.5296 67.8343 10.8829C68.1423 11.2399 68.2641 11.7381 68.1749 12.2872ZM73.3562 4.88172L71.6302 15.7048C71.6222 15.754 71.6253 15.8043 71.639 15.8523C71.6527 15.9003 71.6768 15.9447 71.7097 15.9827C71.7425 16.0206 71.7833 16.051 71.8293 16.0719C71.8752 16.0927 71.9252 16.1035 71.9757 16.1035H73.7111C73.9994 16.1035 74.2442 15.8975 74.2885 15.6169L75.9906 4.98899C75.9985 4.93973 75.9954 4.88936 75.9817 4.84136C75.968 4.79335 75.9439 4.74884 75.911 4.71089C75.8782 4.67294 75.8374 4.64245 75.7915 4.62151C75.7456 4.60057 75.6956 4.58969 75.645 4.5896H73.7018C73.6184 4.58989 73.5378 4.61945 73.4745 4.67298C73.4112 4.7265 73.3692 4.8005 73.3562 4.88172Z" fill="#167FC4"/>
<path d="M4.46792 18.1691L4.78952 16.1558L4.07314 16.1394H0.652344L3.02962 1.28303C3.0367 1.23764 3.06009 1.19626 3.09553 1.16645C3.13098 1.13664 3.17611 1.12037 3.22271 1.12061H8.99065C10.9055 1.12061 12.227 1.51334 12.9169 2.28849C13.2404 2.65212 13.4464 3.03212 13.546 3.45031C13.6505 3.88909 13.6524 4.41334 13.5503 5.05273L13.5429 5.0994V5.50909L13.8663 5.6897C14.1133 5.813 14.3352 5.97978 14.5212 6.18182C14.7979 6.49273 14.9769 6.88788 15.0525 7.35637C15.1306 7.83818 15.1048 8.41152 14.9769 9.06061C14.8293 9.80728 14.5907 10.4576 14.2685 10.9897C13.9842 11.4664 13.602 11.8793 13.1463 12.2018C12.7183 12.5012 12.2098 12.7285 11.6348 12.8739C11.0777 13.017 10.4425 13.0891 9.74577 13.0891H9.29688C8.97589 13.0891 8.66413 13.203 8.41939 13.4073C8.175 13.6137 8.01288 13.8989 7.96189 14.2121L7.92807 14.3933L7.35988 17.9418L7.33406 18.0721C7.32729 18.1133 7.31561 18.1339 7.29839 18.1479C7.28171 18.1613 7.2609 18.1688 7.23936 18.1691H4.46792Z" fill="#022273"/>
<path d="M14.173 5.14673C14.1558 5.25521 14.1361 5.36612 14.114 5.48006C13.3533 9.32915 10.751 10.6588 7.42732 10.6588H5.73506C5.3286 10.6588 4.98609 10.9498 4.92276 11.3449L4.05633 16.7607L3.81098 18.2958C3.80121 18.3567 3.80494 18.419 3.82192 18.4783C3.8389 18.5376 3.86872 18.5926 3.90934 18.6395C3.94996 18.6864 4.0004 18.7241 4.0572 18.7499C4.114 18.7757 4.1758 18.7891 4.23835 18.7892H7.23977C7.59519 18.7892 7.89712 18.5346 7.95308 18.1892L7.98259 18.0388L8.5477 14.5043L8.58398 14.3104C8.63933 13.9637 8.94187 13.7092 9.29729 13.7092H9.74618C12.6541 13.7092 14.9306 12.5455 15.5959 9.17824C15.8739 7.77158 15.73 6.59703 14.9945 5.77097C14.7614 5.51543 14.483 5.3039 14.173 5.14673Z" fill="#167FC4"/>
<path d="M13.3764 4.834C13.1335 4.76476 12.8865 4.71071 12.6367 4.67219C12.1431 4.59742 11.6442 4.56155 11.1449 4.56491H6.62397C6.45192 4.56478 6.2855 4.62532 6.15479 4.73559C6.02408 4.84585 5.9377 4.99856 5.91128 5.16613L4.94955 11.1698L4.92188 11.3449C4.95184 11.1538 5.05021 10.9796 5.1992 10.8537C5.3482 10.7279 5.53797 10.6588 5.73418 10.6589H7.42644C10.7501 10.6589 13.3524 9.32855 14.1131 5.48006C14.1358 5.36613 14.1549 5.25522 14.1721 5.14673C13.9714 5.04299 13.7622 4.95602 13.5467 4.88673C13.4902 4.86826 13.4335 4.85068 13.3764 4.834Z" fill="#022273"/>
<path d="M5.91178 5.16606C5.93798 4.99845 6.02431 4.84567 6.15508 4.73546C6.28586 4.62525 6.45241 4.56493 6.62447 4.56545H11.1454C11.681 4.56545 12.1809 4.6 12.6372 4.67273C12.9459 4.72055 13.2504 4.79208 13.5478 4.88667C13.7723 4.96 13.9808 5.04667 14.1732 5.14667C14.3995 3.72424 14.1714 2.75576 13.391 1.87879C12.5308 0.913333 10.9781 0.5 8.99129 0.5H3.22335C2.81751 0.5 2.47131 0.790909 2.40858 1.18667L0.00609367 16.1958C-0.00509672 16.2654 -0.000839159 16.3367 0.0185735 16.4046C0.0379862 16.4725 0.0720932 16.5355 0.118548 16.5891C0.165004 16.6428 0.222705 16.6859 0.287682 16.7155C0.35266 16.7451 0.423372 16.7605 0.494955 16.7606H4.05595L4.95005 11.1697L5.91178 5.16606Z" fill="#022273"/>
</svg>
