<svg width="24" height="24" viewBox="0 0 24 24" fill="none" xmlns="http://www.w3.org/2000/svg">
<path d="M10.5497 9.9658L10.5497 9.96573C10.5497 9.72071 10.7483 9.52206 10.9933 9.52206C11.2383 9.52206 11.437 9.72071 11.437 9.96573H11.3871L11.437 9.96564C11.4377 10.3918 11.7556 10.7504 12.178 10.8028C12.2248 10.7966 12.2718 10.7984 12.3177 10.8076C12.7743 10.7878 13.1326 10.4074 13.1241 9.94974L13.1241 9.94972C13.1157 9.4901 12.7407 9.12191 12.2808 9.1219L10.5497 9.9658ZM10.5497 9.9658C10.5508 10.7331 11.0556 11.4067 11.7879 11.625M10.5497 9.9658L11.7879 11.625M11.7879 11.625V11.981C11.7879 12.226 11.9866 12.4246 12.2316 12.4246C12.4766 12.4246 12.6753 12.226 12.6753 11.981V11.6513C13.5216 11.4535 14.0923 10.6563 14.0025 9.78759L14.0025 9.78757C13.911 8.90537 13.1678 8.23495 12.2808 8.23475H12.2808C11.8148 8.23475 11.437 7.85693 11.437 7.39092C11.437 6.92491 11.8148 6.54709 12.2808 6.54709C12.7468 6.54709 13.1246 6.92491 13.1246 7.39092C13.1246 7.63594 13.3233 7.83459 13.5683 7.83459C13.8133 7.83459 14.012 7.63594 14.012 7.39092L14.012 7.39085C14.0108 6.58541 13.4559 5.88888 12.6753 5.70524V5.38702C12.6753 5.142 12.4766 4.94335 12.2316 4.94335C11.9866 4.94335 11.7879 5.142 11.7879 5.38702V5.7316C10.9725 5.97351 10.4516 6.77436 10.5651 7.62112C10.6803 8.48057 11.4136 9.12209 12.2808 9.1219L11.7879 11.625Z" fill="url(#paint0_linear_557_1944)" stroke="url(#paint1_linear_557_1944)" stroke-width="0.1"/>
<path d="M6.52227 8.70853V8.70859C6.52227 11.889 9.10043 14.4672 12.2809 14.4672C15.4613 14.4672 18.0394 11.889 18.0394 8.70859C18.0394 5.52816 15.4613 2.95 12.2809 2.95L12.2808 2.95C9.10195 2.95349 6.52595 5.52969 6.52227 8.70853ZM12.2809 3.83734C14.9712 3.83734 17.1521 6.01819 17.1521 8.70859C17.1521 11.399 14.9712 13.5798 12.2809 13.5798C9.59046 13.5798 7.4096 11.399 7.4096 8.70859C7.41268 6.01954 9.5918 3.84041 12.2809 3.83734Z" fill="url(#paint2_linear_557_1944)" stroke="url(#paint3_linear_557_1944)" stroke-width="0.1"/>
<path d="M16.8677 16.7794C16.4275 15.9957 15.6075 15.4989 14.7066 15.4734L14.7065 15.4734L11.8598 15.3952C11.8598 15.3952 11.8598 15.3952 11.8597 15.3952C11.4165 15.3825 10.9816 15.2703 10.5875 15.0667L16.8677 16.7794ZM16.8677 16.7794L19.9078 15.343C19.908 15.3429 19.9082 15.3428 19.9084 15.3427C20.8808 14.8539 22.0657 15.2151 22.6 16.1631C22.7154 16.3676 22.6518 16.6265 22.4546 16.7541L22.4289 16.7144L22.4546 16.7541L15.4332 21.2957C15.4332 21.2958 15.4331 21.2958 15.4331 21.2958C15.4155 21.3073 15.397 21.3176 15.3778 21.3263L16.8677 16.7794ZM5.42184 21.1613C5.41534 21.4016 5.21861 21.5928 4.97819 21.5928H4.96743H4.96605L4.96605 21.5928L1.84438 21.5069C1.59935 21.5002 1.40635 21.2961 1.41306 21.0511L1.41306 21.0511L1.60163 14.2007C1.60163 14.2007 1.60163 14.2007 1.60163 14.2007C1.60835 13.9557 1.81221 13.7627 2.05722 13.7694L2.05723 13.7694L5.1789 13.8553C5.1789 13.8553 5.1789 13.8553 5.1789 13.8553C5.42393 13.862 5.61694 14.0661 5.61022 14.3111L5.61022 14.3111L5.59448 14.8829C7.07487 14.1381 8.82532 14.149 10.2979 14.9166C10.2979 14.9166 10.2979 14.9166 10.298 14.9166L10.5875 15.0667L12.0591 21.6916L12.0594 21.6917L12.0729 21.6435M5.42184 21.1613L5.42184 21.1613L5.37186 21.1599L5.42184 21.1613ZM5.42184 21.1613L5.43008 20.8626M5.43008 20.8626L6.21548 20.442L6.21557 20.442C6.52246 20.2769 6.88122 20.2376 7.21645 20.3325L7.21655 20.3325L12.0587 21.6915L12.0729 21.6435M5.43008 20.8626L5.43088 20.8336L5.3809 20.8322M5.43008 20.8626L5.4045 20.8763L5.3809 20.8322M12.0729 21.6435L7.23007 20.2843M12.0729 21.6435C12.0813 21.646 12.0898 21.648 12.0985 21.6499L7.23007 20.2843M7.23007 20.2843C6.88234 20.1859 6.5102 20.2267 6.19188 20.3979L5.3809 20.8322M7.23007 20.2843L5.3809 20.8322M16.2618 17.6347C16.0822 16.906 15.4377 16.3823 14.6824 16.3605L11.8355 16.2823L11.8354 16.2823C11.2584 16.2656 10.6926 16.1195 10.1796 15.8546L10.1796 15.8546L9.88989 15.7045L9.8898 15.7044C8.515 14.9881 6.86098 15.0719 5.56606 15.922L5.45824 19.8413L5.79664 19.66L16.2618 17.6347ZM16.2618 17.6347L12.0856 17.5194C11.8406 17.5127 11.6367 17.706 11.6298 17.9507L11.6298 17.9508C11.6231 18.1958 11.8163 18.3998 12.0611 18.4065L16.741 18.5353L16.741 18.5353H16.7423H16.7533H16.7533C16.9935 18.5351 17.1901 18.3439 17.1966 18.1038M16.2618 17.6347L17.1966 18.1038M17.1966 18.1038C17.1966 18.1038 17.1966 18.1038 17.1966 18.1038L17.1468 18.1024L17.1966 18.1038ZM17.1642 17.6207L20.2916 16.143L20.2715 16.0972L20.2929 16.1424L20.2923 16.1427C20.2965 16.1408 20.3004 16.1388 20.3031 16.1375L20.3033 16.1374C20.7139 15.9296 21.2065 15.9866 21.5581 16.2773L14.9784 20.5336C14.1342 20.9138 13.1917 21.0187 12.2846 20.8337L7.45664 19.4785C6.90059 19.3214 6.3054 19.3865 5.7967 19.66L17.1642 17.6207ZM17.1642 17.6207L17.1299 17.6369L17.1085 17.5917L17.1577 17.5829C17.16 17.5955 17.1621 17.6081 17.1642 17.6207ZM2.31231 20.6321L2.47641 14.6686L4.71097 14.7301L4.54687 20.6937L2.31231 20.6321Z" fill="url(#paint4_linear_557_1944)" stroke="url(#paint5_linear_557_1944)" stroke-width="0.1"/>
<defs>
<linearGradient id="paint0_linear_557_1944" x1="10.5996" y1="12.3746" x2="16.1687" y2="9.83776" gradientUnits="userSpaceOnUse">
<stop stop-color="#D64E38"/>
<stop offset="1" stop-color="#E16E5C"/>
</linearGradient>
<linearGradient id="paint1_linear_557_1944" x1="10.5996" y1="12.3746" x2="16.1687" y2="9.83776" gradientUnits="userSpaceOnUse">
<stop stop-color="#D64E38"/>
<stop offset="1" stop-color="#E16E5C"/>
</linearGradient>
<linearGradient id="paint2_linear_557_1944" x1="6.57227" y1="14.4172" x2="17.9894" y2="3" gradientUnits="userSpaceOnUse">
<stop stop-color="#D64E38"/>
<stop offset="1" stop-color="#E16E5C"/>
</linearGradient>
<linearGradient id="paint3_linear_557_1944" x1="6.57227" y1="14.4172" x2="17.9894" y2="3" gradientUnits="userSpaceOnUse">
<stop stop-color="#D64E38"/>
<stop offset="1" stop-color="#E16E5C"/>
</linearGradient>
<linearGradient id="paint4_linear_557_1944" x1="1.46289" y1="21.7596" x2="6.68956" y2="7.84156" gradientUnits="userSpaceOnUse">
<stop stop-color="#D64E38"/>
<stop offset="1" stop-color="#E16E5C"/>
</linearGradient>
<linearGradient id="paint5_linear_557_1944" x1="1.46289" y1="21.7596" x2="6.68956" y2="7.84156" gradientUnits="userSpaceOnUse">
<stop stop-color="#D64E38"/>
<stop offset="1" stop-color="#E16E5C"/>
</linearGradient>
</defs>
</svg>
