<svg width="25" height="24" viewBox="0 0 25 24" fill="none" xmlns="http://www.w3.org/2000/svg">
<path d="M5.5 9.75H10V19.5H5.5C5.30109 19.5 5.11032 19.421 4.96967 19.2803C4.82902 19.1397 4.75 18.9489 4.75 18.75V10.5C4.75 10.3011 4.82902 10.1103 4.96967 9.96967C5.11032 9.82902 5.30109 9.75 5.5 9.75V9.75Z" stroke="url(#paint0_linear_557_1933)" stroke-width="1.5" stroke-linecap="round" stroke-linejoin="round"/>
<path d="M10 9.75L13.75 2.25C14.5456 2.25 15.3087 2.56607 15.8713 3.12868C16.4339 3.69129 16.75 4.45435 16.75 5.25V7.5H22.5531C22.7658 7.49947 22.9762 7.54447 23.17 7.63197C23.3639 7.71946 23.5368 7.84743 23.6771 8.00728C23.8174 8.16712 23.9219 8.35514 23.9835 8.55871C24.0451 8.76228 24.0625 8.97667 24.0344 9.1875L22.9094 18.1875C22.8639 18.5488 22.6885 18.8812 22.4159 19.1227C22.1434 19.3642 21.7923 19.4983 21.4281 19.5H10" stroke="url(#paint1_linear_557_1933)" stroke-width="1.5" stroke-linecap="round" stroke-linejoin="round"/>
<defs>
<linearGradient id="paint0_linear_557_1933" x1="4.75" y1="19.5" x2="12.8899" y2="15.117" gradientUnits="userSpaceOnUse">
<stop stop-color="#D64E38"/>
<stop offset="1" stop-color="#E16E5C"/>
</linearGradient>
<linearGradient id="paint1_linear_557_1933" x1="10" y1="19.5" x2="26.8925" y2="5.74369" gradientUnits="userSpaceOnUse">
<stop stop-color="#D64E38"/>
<stop offset="1" stop-color="#E16E5C"/>
</linearGradient>
</defs>
</svg>
